<?xml version="1.0" encoding="UTF-8"?>
<svg id="Layer_2" data-name="Layer 2" xmlns="http://www.w3.org/2000/svg" xmlns:xlink="http://www.w3.org/1999/xlink" viewBox="0 0 2340 1570.85">
  <defs>
    <style>
      .cls-1 {
        fill: #7975ff;
      }

      .cls-1, .cls-2, .cls-3, .cls-4, .cls-5, .cls-6, .cls-7, .cls-8, .cls-9, .cls-10, .cls-11 {
        stroke-width: 0px;
      }

      .cls-2 {
        fill: #243047;
      }

      .cls-12 {
        clip-path: url(#clippath);
      }

      .cls-3 {
        fill: #ffb842;
      }

      .cls-4 {
        fill: none;
      }

      .cls-5 {
        fill: #fc9d12;
      }

      .cls-6 {
        fill: #c8d1fa;
      }

      .cls-7 {
        fill: #bac3fa;
      }

      .cls-8 {
        fill: #1561d4;
      }

      .cls-9 {
        fill: #f93;
      }

      .cls-10 {
        fill: #fff;
      }

      .cls-11 {
        fill: #ff3145;
      }
    </style>
    <clipPath id="clippath">
      <path class="cls-4" d="M913.66,89.7v238.59c82.14-9.66,164.76-14.45,247.45-14.35,13.35,0,26.63.12,39.83.36l3.44-238.52c-14.33-.28-28.76-.42-43.27-.43-82.69-.09-165.31,4.7-247.45,14.35Z"/>
    </clipPath>
  </defs>
  <g id="metaverse">
    <g>
      <path class="cls-7" d="M127.5,1478.33c-3.86,0-6.99-3.16-7-7.08,0-1.79.66-3.52,1.87-4.84l354.38-388.34c2.76-2.75,7.19-2.71,9.9.09,2.53,2.62,2.68,6.76.36,9.56l-354.38,388.33c-1.32,1.46-3.18,2.29-5.13,2.28Z"/>
      <path class="cls-7" d="M2198.43,1478.33c-1.95,0-3.81-.82-5.13-2.28l-354.38-388.33c-2.76-2.75-2.8-7.25-.09-10.05,2.71-2.8,7.14-2.84,9.9-.09.16.16.31.32.45.49l354.38,388.34c2.63,2.87,2.46,7.36-.36,10.02-1.3,1.22-3,1.9-4.77,1.9Z"/>
      <path class="cls-2" d="M2095.79,1244.91c-3.47,0-6.29,2.86-6.29,6.38h0c.18,3.53,3.14,6.24,6.62,6.06,3.23-.17,5.81-2.79,5.97-6.06h0c0-3.52-2.81-6.38-6.29-6.38h-.02Z"/>
      <ellipse class="cls-2" cx="2116.77" cy="1315.17" rx="6.29" ry="6.38"/>
      <path class="cls-2" d="M2115.94,1278.88c-1.37-3.31-2.75-6.73-4.19-10.12-.82,1.1-1.27,2.44-1.27,3.82,0,3.19,2.34,5.89,5.46,6.3Z"/>
      <path class="cls-2" d="M2095.79,1330.06c-3.47,0-6.29,2.86-6.29,6.38v.02h0c.18,3.53,3.14,6.24,6.62,6.06,3.23-.17,5.81-2.79,5.97-6.06h0c0-3.53-2.82-6.4-6.3-6.4Z"/>
      <ellipse class="cls-2" cx="2095.79" cy="1293.88" rx="6.29" ry="6.38"/>
      <path class="cls-2" d="M2137.75,1415.23c-3.47,0-6.29,2.86-6.29,6.38v.02h0c.18,3.53,3.14,6.24,6.62,6.06,3.23-.17,5.81-2.79,5.97-6.06h0c0-3.53-2.82-6.4-6.3-6.4Z"/>
      <ellipse class="cls-2" cx="2137.75" cy="1379.04" rx="6.29" ry="6.38"/>
      <path class="cls-2" d="M2152.75,1398.45c-.2.61-.3,1.24-.31,1.88,0,1.45.5,2.86,1.42,3.98-.36-1.93-.73-3.9-1.11-5.87Z"/>
      <ellipse class="cls-2" cx="2116.77" cy="1400.33" rx="6.29" ry="6.38"/>
      <ellipse class="cls-2" cx="2116.77" cy="1357.75" rx="6.29" ry="6.38"/>
      <path class="cls-2" d="M2095.79,1415.23c-3.47,0-6.29,2.86-6.29,6.38v.02h0c.18,3.53,3.14,6.24,6.62,6.06,3.23-.17,5.81-2.79,5.97-6.06h0c0-3.53-2.82-6.4-6.3-6.4Z"/>
      <ellipse class="cls-2" cx="2095.79" cy="1379.04" rx="6.29" ry="6.38"/>
      <path class="cls-2" d="M2137.75,1342.84c.33,0,.65-.04.98-.1-.64-2.08-1.29-4.18-1.95-6.28s-1.19-3.8-1.81-5.7c-2.16,1.08-3.51,3.33-3.49,5.77h0c.04,3.49,2.83,6.31,6.27,6.31Z"/>
      <path class="cls-2" d="M2137.75,1500.4c-3.47,0-6.28,2.87-6.27,6.4h0c.18,3.53,3.14,6.24,6.62,6.06,3.23-.17,5.81-2.79,5.97-6.06h0c0-3.52-2.8-6.39-6.27-6.4-.02,0-.03,0-.05,0Z"/>
      <ellipse class="cls-2" cx="2137.75" cy="1464.21" rx="6.29" ry="6.38"/>
      <path class="cls-2" d="M2158.72,1479.1c-3.46-.12-6.36,2.63-6.48,6.15s2.6,6.46,6.06,6.58c.52-4.08.94-8.27,1.21-12.65-.26-.04-.52-.07-.78-.08Z"/>
      <ellipse class="cls-2" cx="2116.77" cy="1485.49" rx="6.29" ry="6.38"/>
      <path class="cls-2" d="M2158.72,1449.3h.7c-.24-4.15-.59-8.36-1.01-12.68-3.46.24-6.08,3.29-5.84,6.81.23,3.3,2.89,5.87,6.15,5.94v-.07Z"/>
      <ellipse class="cls-2" cx="2116.77" cy="1442.92" rx="6.29" ry="6.38"/>
      <path class="cls-2" d="M2095.79,1500.4c-3.47,0-6.29,2.86-6.29,6.38h0c.18,3.53,3.14,6.24,6.62,6.06,3.23-.17,5.81-2.79,5.97-6.06h0c0-3.52-2.81-6.38-6.29-6.38h-.02Z"/>
      <ellipse class="cls-2" cx="2095.79" cy="1464.21" rx="6.29" ry="6.38"/>
      <path class="cls-2" d="M2131.48,1549.36c0,.34.04.69.1,1.02,2.63-2.2,5.06-4.64,7.26-7.29-.35-.07-.71-.11-1.07-.12-3.47,0-6.29,2.86-6.29,6.38Z"/>
      <ellipse class="cls-2" cx="2116.77" cy="1528.07" rx="6.29" ry="6.38"/>
      <ellipse class="cls-2" cx="2095.79" cy="1549.36" rx="6.29" ry="6.38"/>
      <path class="cls-2" d="M2057.31,1160.8c-2.89-1.95-6.79-1.16-8.72,1.77-.69,1.05-1.06,2.29-1.05,3.55h0c-.18,3.53,2.5,6.53,5.97,6.71,3.48.18,6.44-2.54,6.62-6.06.01-.22.01-.43,0-.65h0v-.58c-.96-1.59-1.94-3.17-2.82-4.74Z"/>
      <ellipse class="cls-2" cx="2032.87" cy="1144.83" rx="6.29" ry="6.38"/>
      <path class="cls-2" d="M2011.91,1159.74c-3.47,0-6.29,2.84-6.3,6.36v.02h0c-.18,3.53,2.5,6.53,5.97,6.71,3.48.18,6.44-2.54,6.62-6.06.01-.22.01-.43,0-.65h0c0-3.52-2.81-6.38-6.29-6.38Z"/>
      <ellipse class="cls-2" cx="2011.91" cy="1123.54" rx="6.29" ry="6.38"/>
      <path class="cls-2" d="M2053.84,1244.91c-3.47,0-6.29,2.86-6.29,6.38h0c.18,3.53,3.14,6.24,6.62,6.06,3.23-.17,5.81-2.79,5.97-6.06h0c0-3.52-2.81-6.38-6.29-6.38h-.02Z"/>
      <ellipse class="cls-2" cx="2053.84" cy="1208.71" rx="6.29" ry="6.38"/>
      <ellipse class="cls-2" cx="2074.82" cy="1230" rx="6.29" ry="6.38"/>
      <ellipse class="cls-2" cx="2032.87" cy="1230" rx="6.29" ry="6.38"/>
      <path class="cls-2" d="M2074.82,1193.81c.32,0,.64-.04.96-.1-1.87-3.48-3.76-6.97-5.68-10.46-1.03,1.14-1.61,2.62-1.63,4.17,0,3.52,2.8,6.39,6.27,6.4.03,0,.05,0,.08,0Z"/>
      <ellipse class="cls-2" cx="2032.87" cy="1187.42" rx="6.29" ry="6.38"/>
      <path class="cls-2" d="M2011.91,1244.91c-3.47,0-6.29,2.84-6.3,6.36v.02h0c.18,3.53,3.14,6.24,6.62,6.06,3.23-.17,5.81-2.79,5.97-6.06h0c0-3.52-2.81-6.38-6.29-6.38Z"/>
      <ellipse class="cls-2" cx="2011.91" cy="1208.71" rx="6.29" ry="6.38"/>
      <path class="cls-2" d="M2053.84,1330.06c-3.47,0-6.29,2.86-6.29,6.38v.02h0c.18,3.53,3.14,6.24,6.62,6.06,3.23-.17,5.81-2.79,5.97-6.06h0c0-3.53-2.82-6.4-6.3-6.4Z"/>
      <ellipse class="cls-2" cx="2053.84" cy="1293.88" rx="6.29" ry="6.38"/>
      <ellipse class="cls-2" cx="2074.82" cy="1315.17" rx="6.29" ry="6.38"/>
      <ellipse class="cls-2" cx="2032.87" cy="1315.17" rx="6.29" ry="6.38"/>
      <ellipse class="cls-2" cx="2074.82" cy="1272.58" rx="6.29" ry="6.38"/>
      <ellipse class="cls-2" cx="2032.87" cy="1272.58" rx="6.29" ry="6.38"/>
      <path class="cls-2" d="M2011.91,1330.06c-3.48,0-6.3,2.86-6.3,6.4h0c.18,3.53,3.14,6.24,6.62,6.06,3.23-.17,5.81-2.79,5.97-6.06h0c0-3.52-2.8-6.39-6.27-6.4h-.02Z"/>
      <ellipse class="cls-2" cx="2011.91" cy="1293.88" rx="6.29" ry="6.38"/>
      <path class="cls-2" d="M2053.84,1415.23c-3.47,0-6.29,2.86-6.29,6.38v.02h0c.18,3.53,3.14,6.24,6.62,6.06,3.23-.17,5.81-2.79,5.97-6.06h0c0-3.53-2.82-6.4-6.3-6.4Z"/>
      <ellipse class="cls-2" cx="2053.84" cy="1379.04" rx="6.29" ry="6.38"/>
      <ellipse class="cls-2" cx="2074.82" cy="1400.33" rx="6.29" ry="6.38"/>
      <ellipse class="cls-2" cx="2032.87" cy="1400.33" rx="6.29" ry="6.38"/>
      <ellipse class="cls-2" cx="2074.82" cy="1357.75" rx="6.29" ry="6.38"/>
      <ellipse class="cls-2" cx="2032.87" cy="1357.75" rx="6.29" ry="6.38"/>
      <path class="cls-2" d="M2011.91,1415.23c-3.48,0-6.3,2.86-6.3,6.4h0c.18,3.53,3.14,6.24,6.62,6.06,3.23-.17,5.81-2.79,5.97-6.06h0c0-3.52-2.8-6.39-6.27-6.4h-.02Z"/>
      <ellipse class="cls-2" cx="2011.91" cy="1379.04" rx="6.29" ry="6.38"/>
      <path class="cls-2" d="M2053.84,1500.4c-3.47,0-6.29,2.86-6.29,6.38h0c.18,3.53,3.14,6.24,6.62,6.06,3.23-.17,5.81-2.79,5.97-6.06h0c0-3.52-2.81-6.38-6.29-6.38h-.02Z"/>
      <ellipse class="cls-2" cx="2053.84" cy="1464.21" rx="6.29" ry="6.38"/>
      <ellipse class="cls-2" cx="2074.82" cy="1485.49" rx="6.29" ry="6.38"/>
      <ellipse class="cls-2" cx="2032.87" cy="1485.49" rx="6.29" ry="6.38"/>
      <ellipse class="cls-2" cx="2074.82" cy="1442.92" rx="6.29" ry="6.38"/>
      <ellipse class="cls-2" cx="2032.87" cy="1442.92" rx="6.29" ry="6.38"/>
      <path class="cls-2" d="M2011.91,1500.4c-3.47,0-6.29,2.84-6.3,6.36v.02h0c.18,3.53,3.14,6.24,6.62,6.06,3.23-.17,5.81-2.79,5.97-6.06h0c0-3.52-2.81-6.38-6.29-6.38Z"/>
      <ellipse class="cls-2" cx="2011.91" cy="1464.21" rx="6.29" ry="6.38"/>
      <path class="cls-2" d="M2053.84,1542.98c-3.47,0-6.29,2.86-6.29,6.38.01.69.13,1.37.34,2.02,2.95,1.36,5.85,2.58,8.7,3.7,3.12-1.52,4.44-5.33,2.94-8.49-1.05-2.22-3.26-3.62-5.69-3.61Z"/>
      <ellipse class="cls-2" cx="2074.82" cy="1528.07" rx="6.29" ry="6.38"/>
      <ellipse class="cls-2" cx="2032.87" cy="1528.07" rx="6.29" ry="6.38"/>
      <path class="cls-2" d="M1969.95,1074.58c-3.47,0-6.29,2.84-6.3,6.36v.02h0c.18,3.53,3.14,6.24,6.62,6.06,3.23-.17,5.81-2.79,5.97-6.06h0c0-3.52-2.81-6.38-6.29-6.38Z"/>
      <path class="cls-2" d="M1969.95,1044.77c1.76,0,3.44-.77,4.63-2.1-2.72-3.31-5.46-6.41-8.14-9.55-2.82,2.05-3.48,6.03-1.46,8.9,1.16,1.65,3.03,2.64,5.03,2.67l-.05.08Z"/>
      <path class="cls-2" d="M1990.93,1066.06c.75,0,1.5-.15,2.2-.43-2.49-3.19-4.89-6.35-7.46-9.46-1.93,2.92-1.17,6.87,1.7,8.83,1.05.72,2.29,1.1,3.56,1.08v-.03Z"/>
      <ellipse class="cls-2" cx="1948.98" cy="1059.67" rx="6.29" ry="6.38"/>
      <path class="cls-2" d="M1948.98,1023.48c2.38-.01,4.56-1.39,5.62-3.55-2.72-2.96-5.44-5.84-8.14-8.68-3.18,1.4-4.64,5.16-3.26,8.4,1,2.34,3.27,3.84,5.78,3.84Z"/>
      <path class="cls-2" d="M1928,1074.58c-3.47,0-6.29,2.84-6.3,6.36v.02h0c.18,3.53,3.14,6.24,6.62,6.06,3.23-.17,5.81-2.79,5.97-6.06h0c0-3.52-2.81-6.38-6.29-6.38Z"/>
      <ellipse class="cls-2" cx="1928" cy="1038.39" rx="6.29" ry="6.38"/>
      <path class="cls-2" d="M1969.95,1159.74c-3.47,0-6.29,2.84-6.3,6.36v.02h0c-.18,3.53,2.5,6.53,5.97,6.71,3.48.18,6.44-2.54,6.62-6.06.01-.22.01-.43,0-.65h0c0-3.52-2.81-6.38-6.29-6.38Z"/>
      <ellipse class="cls-2" cx="1969.95" cy="1123.54" rx="6.29" ry="6.38"/>
      <ellipse class="cls-2" cx="1990.93" cy="1144.83" rx="6.29" ry="6.38"/>
      <ellipse class="cls-2" cx="1948.98" cy="1144.83" rx="6.29" ry="6.38"/>
      <ellipse class="cls-2" cx="1990.93" cy="1102.25" rx="6.29" ry="6.38"/>
      <ellipse class="cls-2" cx="1948.98" cy="1102.25" rx="6.29" ry="6.38"/>
      <path class="cls-2" d="M1928,1159.74c-3.47,0-6.29,2.84-6.3,6.36v.02h0c-.18,3.53,2.5,6.53,5.97,6.71,3.48.18,6.44-2.54,6.62-6.06.01-.22.01-.43,0-.65h0c0-3.52-2.81-6.38-6.29-6.38Z"/>
      <ellipse class="cls-2" cx="1928" cy="1123.54" rx="6.29" ry="6.38"/>
      <path class="cls-2" d="M2008.78,1086.48l-3.01-4.13c.38,1.75,1.48,3.25,3.01,4.13Z"/>
      <path class="cls-2" d="M1969.95,1244.91c-3.47,0-6.29,2.84-6.3,6.36v.02h0c.18,3.53,3.14,6.24,6.62,6.06,3.23-.17,5.81-2.79,5.97-6.06h0c0-3.52-2.81-6.38-6.29-6.38Z"/>
      <ellipse class="cls-2" cx="1969.95" cy="1208.71" rx="6.29" ry="6.38"/>
      <ellipse class="cls-2" cx="1990.93" cy="1230" rx="6.29" ry="6.38"/>
      <ellipse class="cls-2" cx="1948.98" cy="1230" rx="6.29" ry="6.38"/>
      <ellipse class="cls-2" cx="1990.93" cy="1187.42" rx="6.29" ry="6.38"/>
      <ellipse class="cls-2" cx="1948.98" cy="1187.42" rx="6.29" ry="6.38"/>
      <path class="cls-2" d="M1928,1244.91c-3.47,0-6.29,2.84-6.3,6.36v.02h0c.18,3.53,3.14,6.24,6.62,6.06,3.23-.17,5.81-2.79,5.97-6.06h0c0-3.52-2.81-6.38-6.29-6.38Z"/>
      <ellipse class="cls-2" cx="1928" cy="1208.71" rx="6.29" ry="6.38"/>
      <path class="cls-2" d="M1969.95,1330.06c-3.47.05-6.26,2.94-6.22,6.46h0c.18,3.53,3.14,6.24,6.62,6.06,3.23-.17,5.81-2.79,5.97-6.06h0c.05-3.52-2.73-6.42-6.2-6.46-.05,0-.11,0-.16,0Z"/>
      <ellipse class="cls-2" cx="1969.95" cy="1293.88" rx="6.29" ry="6.38"/>
      <ellipse class="cls-2" cx="1990.93" cy="1315.17" rx="6.29" ry="6.38"/>
      <ellipse class="cls-2" cx="1948.98" cy="1315.17" rx="6.29" ry="6.38"/>
      <ellipse class="cls-2" cx="1990.93" cy="1272.58" rx="6.29" ry="6.38"/>
      <ellipse class="cls-2" cx="1948.98" cy="1272.58" rx="6.29" ry="6.38"/>
      <path class="cls-2" d="M1928,1330.06c-3.48,0-6.3,2.86-6.3,6.4h0c.18,3.53,3.14,6.24,6.62,6.06,3.23-.17,5.81-2.79,5.97-6.06h0c0-3.52-2.8-6.39-6.27-6.4h-.02Z"/>
      <ellipse class="cls-2" cx="1928" cy="1293.88" rx="6.29" ry="6.38"/>
      <path class="cls-2" d="M1969.95,1415.23c-3.48,0-6.3,2.86-6.3,6.4h0c.18,3.53,3.14,6.24,6.62,6.06,3.23-.17,5.81-2.79,5.97-6.06h0c0-3.52-2.8-6.39-6.27-6.4h-.02Z"/>
      <ellipse class="cls-2" cx="1969.95" cy="1379.04" rx="6.29" ry="6.38"/>
      <ellipse class="cls-2" cx="1990.93" cy="1400.33" rx="6.29" ry="6.38"/>
      <ellipse class="cls-2" cx="1948.98" cy="1400.33" rx="6.29" ry="6.38"/>
      <ellipse class="cls-2" cx="1990.93" cy="1357.75" rx="6.29" ry="6.38"/>
      <ellipse class="cls-2" cx="1948.98" cy="1357.75" rx="6.29" ry="6.38"/>
      <path class="cls-2" d="M1928,1415.23c-3.48,0-6.3,2.86-6.3,6.4h0c.18,3.53,3.14,6.24,6.62,6.06,3.23-.17,5.81-2.79,5.97-6.06h0c0-3.52-2.8-6.39-6.27-6.4h-.02Z"/>
      <ellipse class="cls-2" cx="1928" cy="1379.04" rx="6.29" ry="6.38"/>
      <ellipse class="cls-2" cx="1969.95" cy="1464.21" rx="6.29" ry="6.38"/>
      <ellipse class="cls-2" cx="1990.93" cy="1485.49" rx="6.29" ry="6.38"/>
      <ellipse class="cls-2" cx="1990.93" cy="1442.92" rx="6.29" ry="6.38"/>
      <ellipse class="cls-2" cx="1948.98" cy="1442.92" rx="6.29" ry="6.38"/>
      <path class="cls-2" d="M1886.05,989.38c-3.48,0-6.3,2.86-6.3,6.4h0c.18,3.53,3.14,6.24,6.62,6.06,3.23-.17,5.81-2.79,5.97-6.06h0c0-3.52-2.8-6.39-6.27-6.4h-.02Z"/>
      <path class="cls-2" d="M1886.05,959.62c.81,0,1.61-.16,2.36-.48-2.88-2.2-5.75-4.27-8.63-6.2v.3c0,3.52,2.8,6.37,6.27,6.38Z"/>
      <path class="cls-2" d="M1907.03,980.9c2,0,3.88-.98,5.05-2.63-3.26-2.79-6.42-5.52-9.61-8.13-1.12,1.18-1.74,2.75-1.74,4.38,0,3.52,2.81,6.38,6.29,6.38h.02Z"/>
      <ellipse class="cls-2" cx="1865.07" cy="974.51" rx="6.29" ry="6.38"/>
      <path class="cls-2" d="M1844.1,989.38c-3.47,0-6.29,2.86-6.29,6.38v.02h0c0,3.52,2.8,6.39,6.27,6.4,3.47,0,6.29-2.84,6.3-6.36v-.04h0c0-3.52-2.8-6.39-6.27-6.4h-.02Z"/>
      <ellipse class="cls-2" cx="1844.1" cy="953.22" rx="6.29" ry="6.38"/>
      <path class="cls-2" d="M1886.05,1074.58c-3.47,0-6.29,2.84-6.3,6.36v.02h0c.18,3.53,3.14,6.24,6.62,6.06,3.23-.17,5.81-2.79,5.97-6.06h0c0-3.52-2.81-6.38-6.29-6.38Z"/>
      <ellipse class="cls-2" cx="1886.05" cy="1038.39" rx="6.29" ry="6.38"/>
      <ellipse class="cls-2" cx="1907.03" cy="1059.67" rx="6.29" ry="6.38"/>
      <ellipse class="cls-2" cx="1865.07" cy="1059.67" rx="6.29" ry="6.38"/>
      <ellipse class="cls-2" cx="1907.03" cy="1017.1" rx="6.29" ry="6.38"/>
      <ellipse class="cls-2" cx="1865.07" cy="1017.1" rx="6.29" ry="6.38"/>
      <path class="cls-2" d="M1844.1,1074.58c-3.47,0-6.29,2.86-6.29,6.38h0c0,3.52,2.83,6.37,6.3,6.36,3.46,0,6.26-2.85,6.27-6.36h0c0-3.52-2.81-6.38-6.29-6.38Z"/>
      <ellipse class="cls-2" cx="1844.1" cy="1038.39" rx="6.29" ry="6.38"/>
      <path class="cls-2" d="M1928,1002.19c2.5,0,4.76-1.51,5.75-3.84l-2.64-2.55-3.11-3.01-2.83-2.68c-2.12,1.08-3.47,3.28-3.47,5.69h0c0,3.52,2.81,6.38,6.29,6.38h.02Z"/>
      <path class="cls-2" d="M1886.05,1159.74c-3.47,0-6.29,2.84-6.3,6.36v.02h0c-.18,3.53,2.5,6.53,5.97,6.71,3.48.18,6.44-2.54,6.62-6.06.01-.22.01-.43,0-.65h0c0-3.52-2.81-6.38-6.29-6.38Z"/>
      <ellipse class="cls-2" cx="1886.05" cy="1123.54" rx="6.29" ry="6.38"/>
      <ellipse class="cls-2" cx="1907.03" cy="1144.83" rx="6.29" ry="6.38"/>
      <ellipse class="cls-2" cx="1865.07" cy="1144.83" rx="6.29" ry="6.38"/>
      <ellipse class="cls-2" cx="1907.03" cy="1102.25" rx="6.29" ry="6.38"/>
      <ellipse class="cls-2" cx="1865.07" cy="1102.25" rx="6.29" ry="6.38"/>
      <path class="cls-2" d="M1844.1,1159.74c-3.47,0-6.29,2.86-6.29,6.38h0c0,3.52,2.8,6.39,6.27,6.4s6.29-2.84,6.3-6.36v-.04h0c0-3.52-2.81-6.38-6.29-6.38Z"/>
      <ellipse class="cls-2" cx="1844.1" cy="1123.54" rx="6.29" ry="6.38"/>
      <path class="cls-2" d="M1886.05,1244.91c-3.47,0-6.29,2.84-6.3,6.36v.02h0c.18,3.53,3.14,6.24,6.62,6.06,3.23-.17,5.81-2.79,5.97-6.06h0c0-3.52-2.81-6.38-6.29-6.38Z"/>
      <ellipse class="cls-2" cx="1886.05" cy="1208.71" rx="6.29" ry="6.38"/>
      <ellipse class="cls-2" cx="1907.03" cy="1230" rx="6.29" ry="6.38"/>
      <ellipse class="cls-2" cx="1865.07" cy="1230" rx="6.29" ry="6.38"/>
      <ellipse class="cls-2" cx="1907.03" cy="1187.42" rx="6.29" ry="6.38"/>
      <ellipse class="cls-2" cx="1865.07" cy="1187.42" rx="6.29" ry="6.38"/>
      <path class="cls-2" d="M1844.1,1244.91c-3.47,0-6.29,2.86-6.29,6.38h0c0,3.52,2.83,6.37,6.3,6.36,3.46,0,6.26-2.85,6.27-6.36h0c0-3.52-2.81-6.38-6.29-6.38Z"/>
      <ellipse class="cls-2" cx="1844.1" cy="1208.71" rx="6.29" ry="6.38"/>
      <path class="cls-2" d="M1886.05,1330.06c-3.48,0-6.3,2.86-6.3,6.4h0c.18,3.53,3.14,6.24,6.62,6.06,3.23-.17,5.81-2.79,5.97-6.06h0c0-3.52-2.8-6.39-6.27-6.4h-.02Z"/>
      <ellipse class="cls-2" cx="1886.05" cy="1293.88" rx="6.29" ry="6.38"/>
      <ellipse class="cls-2" cx="1907.03" cy="1315.17" rx="6.29" ry="6.38"/>
      <ellipse class="cls-2" cx="1865.07" cy="1315.17" rx="6.29" ry="6.38"/>
      <ellipse class="cls-2" cx="1907.03" cy="1272.58" rx="6.29" ry="6.38"/>
      <ellipse class="cls-2" cx="1865.07" cy="1272.58" rx="6.29" ry="6.38"/>
      <path class="cls-2" d="M1844.1,1330.06c-1.62,0-3.18.64-4.35,1.79l2.78,4.61,1.63,2.53,2.12,3.45c2.5-.9,4.16-3.3,4.17-5.98h0c0-3.52-2.8-6.39-6.27-6.4-.03,0-.05,0-.08,0Z"/>
      <ellipse class="cls-2" cx="1844.1" cy="1293.88" rx="6.29" ry="6.38"/>
      <ellipse class="cls-2" cx="1886.05" cy="1379.04" rx="6.29" ry="6.38"/>
      <ellipse class="cls-2" cx="1907.03" cy="1400.33" rx="6.29" ry="6.38"/>
      <ellipse class="cls-2" cx="1907.03" cy="1357.75" rx="6.29" ry="6.38"/>
      <ellipse class="cls-2" cx="1865.07" cy="1357.75" rx="6.29" ry="6.38"/>
      <path class="cls-2" d="M1802.15,989.38c-3.47,0-6.29,2.86-6.29,6.38v.02h0c0,3.52,2.83,6.37,6.3,6.36,3.46,0,6.26-2.85,6.27-6.36h0c0-3.52-2.8-6.39-6.27-6.4h-.02Z"/>
      <ellipse class="cls-2" cx="1802.15" cy="953.22" rx="6.29" ry="6.38"/>
      <ellipse class="cls-2" cx="1823.12" cy="974.51" rx="6.29" ry="6.38"/>
      <ellipse class="cls-2" cx="1781.17" cy="974.51" rx="6.29" ry="6.38"/>
      <ellipse class="cls-2" cx="1823.12" cy="931.93" rx="6.29" ry="6.38"/>
      <ellipse class="cls-2" cx="1781.17" cy="931.93" rx="6.29" ry="6.38"/>
      <path class="cls-2" d="M1760.16,989.38c-3.47,0-6.29,2.86-6.29,6.38v.02h0c0,3.52,2.83,6.37,6.3,6.36,3.46,0,6.26-2.85,6.27-6.36h0c0-3.52-2.8-6.39-6.27-6.4h-.02Z"/>
      <ellipse class="cls-2" cx="1760.19" cy="953.22" rx="6.29" ry="6.38"/>
      <path class="cls-2" d="M1802.15,1074.58c-3.47,0-6.29,2.86-6.29,6.38h0c0,3.52,2.83,6.37,6.3,6.36,3.46,0,6.26-2.85,6.27-6.36h0c0-3.52-2.81-6.38-6.29-6.38Z"/>
      <ellipse class="cls-2" cx="1802.15" cy="1038.39" rx="6.29" ry="6.38"/>
      <ellipse class="cls-2" cx="1823.12" cy="1059.67" rx="6.29" ry="6.38"/>
      <ellipse class="cls-2" cx="1781.17" cy="1059.67" rx="6.29" ry="6.38"/>
      <ellipse class="cls-2" cx="1823.12" cy="1017.1" rx="6.29" ry="6.38"/>
      <ellipse class="cls-2" cx="1781.17" cy="1017.1" rx="6.29" ry="6.38"/>
      <path class="cls-2" d="M1760.16,1074.58c-3.47,0-6.29,2.86-6.29,6.38h0c0,3.52,2.83,6.37,6.3,6.36,3.46,0,6.26-2.85,6.27-6.36h0c0-3.52-2.81-6.38-6.29-6.38Z"/>
      <ellipse class="cls-2" cx="1760.19" cy="1038.39" rx="6.29" ry="6.38"/>
      <path class="cls-2" d="M1802.15,1159.74c-3.47,0-6.29,2.86-6.29,6.38h0c0,3.52,2.8,6.39,6.27,6.4s6.29-2.84,6.3-6.36v-.04h0c0-3.52-2.81-6.38-6.29-6.38Z"/>
      <ellipse class="cls-2" cx="1802.15" cy="1123.54" rx="6.29" ry="6.38"/>
      <ellipse class="cls-2" cx="1823.12" cy="1144.83" rx="6.29" ry="6.38"/>
      <ellipse class="cls-2" cx="1781.17" cy="1144.83" rx="6.29" ry="6.38"/>
      <ellipse class="cls-2" cx="1823.12" cy="1102.25" rx="6.29" ry="6.38"/>
      <ellipse class="cls-2" cx="1781.17" cy="1102.25" rx="6.29" ry="6.38"/>
      <path class="cls-2" d="M1760.16,1159.74c-.42,0-.84.05-1.25.13.42,1.21.85,2.43,1.25,3.64.29.88.6,1.75.9,2.61.65,1.88,1.32,3.77,1.99,5.65,2.09-1.09,3.4-3.27,3.4-5.65h0c0-3.52-2.81-6.38-6.29-6.38Z"/>
      <ellipse class="cls-2" cx="1760.19" cy="1123.54" rx="6.29" ry="6.38"/>
      <path class="cls-2" d="M1802.15,1244.91c-3.17.03-5.81,2.46-6.16,5.65l.36.79,2.64,5.47c2.97,1.81,6.82.83,8.6-2.19.59-.99.89-2.13.89-3.29h0c.04-3.52-2.75-6.41-6.22-6.45-.04,0-.08,0-.11,0Z"/>
      <ellipse class="cls-2" cx="1802.15" cy="1208.71" rx="6.29" ry="6.38"/>
      <ellipse class="cls-2" cx="1823.12" cy="1230" rx="6.29" ry="6.38"/>
      <path class="cls-2" d="M1783.94,1224.3c1.09,2.46,2.17,4.92,3.26,7.39.85-2.94-.53-6.07-3.26-7.39Z"/>
      <ellipse class="cls-2" cx="1823.12" cy="1187.42" rx="6.29" ry="6.38"/>
      <ellipse class="cls-2" cx="1781.17" cy="1187.42" rx="6.29" ry="6.38"/>
      <path class="cls-2" d="M1827.11,1310.27l.37.64,1.82,3.17c-.25-1.5-1.03-2.86-2.2-3.82Z"/>
      <ellipse class="cls-2" cx="1823.12" cy="1272.58" rx="6.29" ry="6.38"/>
      <path class="cls-2" d="M1739.22,968.12c-.39,0-.78.05-1.16.13-1.09,3.54-2.07,7.24-2.88,11.11,1.12.98,2.55,1.53,4.04,1.54,3.48.18,6.44-2.54,6.62-6.06.18-3.53-2.5-6.53-5.97-6.71-.21-.01-.43-.01-.64,0Z"/>
      <path class="cls-2" d="M1739.22,1053.28c-2.05,0-3.97,1.02-5.15,2.73.36,2.83.75,5.69,1.19,8.58,1.11.95,2.51,1.47,3.96,1.47,3.48.18,6.44-2.54,6.62-6.06.18-3.53-2.5-6.53-5.97-6.71-.21-.01-.43-.01-.64,0Z"/>
      <ellipse class="cls-2" cx="1739.22" cy="1017.1" rx="6.29" ry="6.38"/>
      <path class="cls-2" d="M1741.07,1096.18c.78,3.54,1.63,7.09,2.48,10.7,2.51-2.4,2.63-6.42.26-8.97-.75-.81-1.69-1.4-2.74-1.72Z"/>
      <path class="cls-2" d="M585.59,989.38c-3.47,0-6.29,2.86-6.29,6.38v.02h0c0,3.52,2.8,6.39,6.27,6.4,3.47,0,6.29-2.84,6.3-6.36v-.04h0c0-3.52-2.8-6.39-6.27-6.4h-.02Z"/>
      <ellipse class="cls-2" cx="606.56" cy="1059.67" rx="6.29" ry="6.38"/>
      <ellipse class="cls-2" cx="606.56" cy="1017.1" rx="6.29" ry="6.38"/>
      <path class="cls-2" d="M585.59,1074.58c-3.47,0-6.29,2.86-6.29,6.38h0c0,3.52,2.8,6.39,6.27,6.4,3.47,0,6.29-2.84,6.3-6.36v-.04h0c0-3.52-2.81-6.38-6.29-6.38Z"/>
      <ellipse class="cls-2" cx="585.59" cy="1038.39" rx="6.29" ry="6.38"/>
      <path class="cls-2" d="M621.25,1166.12h0c0,2.65,1.61,5.02,4.06,5.95.25-1.98.48-3.97.68-5.95.24-2.1.46-4.2.65-6.3-3.09.45-5.38,3.13-5.39,6.3Z"/>
      <path class="cls-2" d="M621.25,1123.54c0,3.52,2.8,6.39,6.27,6.4h.02c.36,0,.71-.04,1.06-.12.13-4.2.21-8.38.23-12.53-.42-.09-.85-.13-1.29-.13-3.47,0-6.29,2.86-6.29,6.38Z"/>
      <ellipse class="cls-2" cx="606.56" cy="1144.83" rx="6.29" ry="6.38"/>
      <ellipse class="cls-2" cx="606.56" cy="1102.25" rx="6.29" ry="6.38"/>
      <path class="cls-2" d="M585.59,1159.74c-3.47,0-6.29,2.86-6.29,6.38h0c0,3.52,2.8,6.39,6.27,6.4,3.47,0,6.29-2.84,6.3-6.36v-.04h0c0-3.52-2.81-6.38-6.29-6.38Z"/>
      <ellipse class="cls-2" cx="585.59" cy="1123.54" rx="6.29" ry="6.38"/>
      <path class="cls-2" d="M627.54,1087.35h.28c-.16-2.13-.33-4.25-.52-6.36s-.37-4.2-.6-6.3c-3.11.42-5.43,3.11-5.44,6.3h0c0,3.52,2.82,6.36,6.29,6.36Z"/>
      <ellipse class="cls-2" cx="606.56" cy="1230" rx="6.29" ry="6.38"/>
      <ellipse class="cls-2" cx="606.56" cy="1187.42" rx="6.29" ry="6.38"/>
      <path class="cls-2" d="M585.59,1244.91c-3.47,0-6.29,2.86-6.29,6.38h0c0,3.52,2.8,6.39,6.27,6.4,3.47,0,6.29-2.84,6.3-6.36v-.04h0c0-3.52-2.81-6.38-6.29-6.38Z"/>
      <ellipse class="cls-2" cx="585.59" cy="1208.71" rx="6.29" ry="6.38"/>
      <path class="cls-2" d="M600.28,1272.58c0,1.39.45,2.75,1.29,3.85,1.09-3.31,2.17-6.61,3.26-9.92-2.68.77-4.53,3.24-4.54,6.07Z"/>
      <ellipse class="cls-2" cx="585.59" cy="1293.88" rx="6.29" ry="6.38"/>
      <path class="cls-2" d="M501.68,904.24c-3.47,0-6.29,2.86-6.29,6.38v.02h0c.18,3.53,3.14,6.24,6.61,6.06,3.23-.17,5.81-2.79,5.97-6.06h0c0-3.53-2.82-6.4-6.3-6.4Z"/>
      <path class="cls-2" d="M543.62,989.38c-3.47,0-6.29,2.86-6.29,6.38v.02h0c0,3.52,2.8,6.39,6.27,6.4,3.47,0,6.29-2.84,6.3-6.36v-.04h0c0-3.52-2.8-6.39-6.27-6.4h-.02Z"/>
      <ellipse class="cls-2" cx="543.63" cy="953.22" rx="6.29" ry="6.38"/>
      <path class="cls-2" d="M585.59,959.62c.75,0,1.49-.15,2.2-.41-.73-1.06-1.45-2.1-2.2-3.12-1.64-2.2-3.33-4.41-5.08-6.61-2.04,2.85-1.42,6.84,1.39,8.91,1.07.79,2.37,1.22,3.69,1.22v.02Z"/>
      <ellipse class="cls-2" cx="564.61" cy="974.51" rx="6.29" ry="6.38"/>
      <ellipse class="cls-2" cx="522.66" cy="974.51" rx="6.29" ry="6.38"/>
      <path class="cls-2" d="M564.61,938.31c1.57,0,3.08-.58,4.23-1.65-3.03-2.94-6.14-5.74-9.38-8.36-2,2.88-1.31,6.86,1.53,8.89,1.06.76,2.32,1.16,3.62,1.16v-.03Z"/>
      <ellipse class="cls-2" cx="522.66" cy="931.93" rx="6.29" ry="6.38"/>
      <path class="cls-2" d="M501.68,989.38c-3.47,0-6.29,2.86-6.29,6.38v.02h0c.18,3.53,3.14,6.24,6.61,6.06,3.23-.17,5.81-2.79,5.97-6.06h0c0-3.53-2.82-6.4-6.3-6.4Z"/>
      <ellipse class="cls-2" cx="501.68" cy="953.22" rx="6.29" ry="6.38"/>
      <path class="cls-2" d="M543.18,916.99c-1.5-.89-3.05-1.75-4.59-2.56,1.09,1.49,2.77,2.43,4.59,2.56Z"/>
      <path class="cls-2" d="M543.62,1074.58c-3.47,0-6.29,2.86-6.29,6.38h0c0,3.52,2.8,6.39,6.27,6.4,3.47,0,6.29-2.84,6.3-6.36v-.04h0c0-3.52-2.81-6.38-6.29-6.38Z"/>
      <ellipse class="cls-2" cx="543.63" cy="1038.39" rx="6.29" ry="6.38"/>
      <ellipse class="cls-2" cx="564.61" cy="1059.67" rx="6.29" ry="6.38"/>
      <ellipse class="cls-2" cx="522.66" cy="1059.67" rx="6.29" ry="6.38"/>
      <ellipse class="cls-2" cx="564.61" cy="1017.1" rx="6.29" ry="6.38"/>
      <ellipse class="cls-2" cx="522.66" cy="1017.1" rx="6.29" ry="6.38"/>
      <path class="cls-2" d="M501.68,1074.58c-3.47,0-6.29,2.86-6.29,6.38h0c.18,3.53,3.14,6.24,6.61,6.06,3.23-.17,5.81-2.79,5.97-6.06h0c0-3.52-2.81-6.38-6.29-6.38h-.02Z"/>
      <ellipse class="cls-2" cx="501.68" cy="1038.39" rx="6.29" ry="6.38"/>
      <path class="cls-2" d="M543.62,1159.74c-3.47,0-6.29,2.86-6.29,6.38h0c0,3.52,2.8,6.39,6.27,6.4,3.47,0,6.29-2.84,6.3-6.36v-.04h0c0-3.52-2.81-6.38-6.29-6.38Z"/>
      <ellipse class="cls-2" cx="543.63" cy="1123.54" rx="6.29" ry="6.38"/>
      <ellipse class="cls-2" cx="564.61" cy="1144.83" rx="6.29" ry="6.38"/>
      <ellipse class="cls-2" cx="522.66" cy="1144.83" rx="6.29" ry="6.38"/>
      <ellipse class="cls-2" cx="564.61" cy="1102.25" rx="6.29" ry="6.38"/>
      <ellipse class="cls-2" cx="522.66" cy="1102.25" rx="6.29" ry="6.38"/>
      <path class="cls-2" d="M501.68,1159.74c-3.47,0-6.29,2.86-6.29,6.38h0c-.18,3.53,2.5,6.53,5.97,6.71,3.48.18,6.44-2.54,6.61-6.06.01-.22.01-.43,0-.65h0c0-3.52-2.81-6.38-6.29-6.38h-.02Z"/>
      <ellipse class="cls-2" cx="501.68" cy="1123.54" rx="6.29" ry="6.38"/>
      <path class="cls-2" d="M543.62,1244.91c-3.47,0-6.29,2.86-6.29,6.38h0c0,3.52,2.8,6.39,6.27,6.4,3.47,0,6.29-2.84,6.3-6.36v-.04h0c0-3.52-2.81-6.38-6.29-6.38Z"/>
      <ellipse class="cls-2" cx="543.63" cy="1208.71" rx="6.29" ry="6.38"/>
      <ellipse class="cls-2" cx="564.61" cy="1230" rx="6.29" ry="6.38"/>
      <ellipse class="cls-2" cx="522.66" cy="1230" rx="6.29" ry="6.38"/>
      <ellipse class="cls-2" cx="564.61" cy="1187.42" rx="6.29" ry="6.38"/>
      <ellipse class="cls-2" cx="522.66" cy="1187.42" rx="6.29" ry="6.38"/>
      <path class="cls-2" d="M501.68,1244.91c-3.47,0-6.29,2.86-6.29,6.38h0c.18,3.53,3.14,6.24,6.61,6.06,3.23-.17,5.81-2.79,5.97-6.06h0c0-3.52-2.81-6.38-6.29-6.38h-.02Z"/>
      <ellipse class="cls-2" cx="501.68" cy="1208.71" rx="6.29" ry="6.38"/>
      <path class="cls-2" d="M543.62,1330.06c-3.47,0-6.29,2.86-6.29,6.38v.02h0c0,3.52,2.8,6.39,6.27,6.4,3.47,0,6.29-2.84,6.3-6.36v-.04h0c0-3.52-2.8-6.39-6.27-6.4h-.02Z"/>
      <ellipse class="cls-2" cx="543.63" cy="1293.88" rx="6.29" ry="6.38"/>
      <ellipse class="cls-2" cx="564.61" cy="1315.17" rx="6.29" ry="6.38"/>
      <ellipse class="cls-2" cx="522.66" cy="1315.17" rx="6.29" ry="6.38"/>
      <ellipse class="cls-2" cx="564.61" cy="1272.58" rx="6.29" ry="6.38"/>
      <ellipse class="cls-2" cx="522.66" cy="1272.58" rx="6.29" ry="6.38"/>
      <path class="cls-2" d="M501.68,1330.06c-3.47,0-6.29,2.86-6.29,6.38v.02h0c.18,3.53,3.14,6.24,6.61,6.06,3.23-.17,5.81-2.79,5.97-6.06h0c0-3.53-2.82-6.4-6.3-6.4Z"/>
      <ellipse class="cls-2" cx="501.68" cy="1293.88" rx="6.29" ry="6.38"/>
      <ellipse class="cls-2" cx="543.63" cy="1379.04" rx="6.29" ry="6.38"/>
      <ellipse class="cls-2" cx="522.66" cy="1400.33" rx="6.29" ry="6.38"/>
      <path class="cls-2" d="M564.61,1351.4c-3.48.18-6.15,3.19-5.97,6.71.16,3.28,2.75,5.9,5.97,6.06,1.74-3.31,3.47-6.61,5.15-10.1-1.19-1.69-3.1-2.68-5.15-2.68Z"/>
      <ellipse class="cls-2" cx="522.66" cy="1357.75" rx="6.29" ry="6.38"/>
      <path class="cls-2" d="M501.68,1415.23c-3.47,0-6.29,2.86-6.29,6.38v.02h0c.18,3.53,3.14,6.24,6.61,6.06,3.23-.17,5.81-2.79,5.97-6.06h0c0-3.53-2.82-6.4-6.3-6.4Z"/>
      <ellipse class="cls-2" cx="501.68" cy="1379.04" rx="6.29" ry="6.38"/>
      <path class="cls-2" d="M459.73,904.24c-3.47,0-6.29,2.86-6.29,6.38v.02h0c.18,3.53,3.14,6.24,6.61,6.06,3.23-.17,5.81-2.79,5.97-6.06h0c0-3.53-2.82-6.4-6.3-6.4Z"/>
      <path class="cls-2" d="M421.13,910.64l-3.35,1.27c-1.76.69-3.53,1.41-5.29,2.13,1.86,2.98,5.74,3.86,8.68,1.97,1.81-1.17,2.92-3.2,2.92-5.38h0c0-.34-.04-.68-.1-1.01l-2.85,1.01Z"/>
      <path class="cls-2" d="M459.73,989.38c-3.47,0-6.29,2.86-6.29,6.38v.02h0c.18,3.53,3.14,6.24,6.61,6.06,3.23-.17,5.81-2.79,5.97-6.06h0c0-3.53-2.82-6.4-6.3-6.4Z"/>
      <ellipse class="cls-2" cx="459.73" cy="953.22" rx="6.29" ry="6.38"/>
      <ellipse class="cls-2" cx="480.71" cy="974.51" rx="6.29" ry="6.38"/>
      <ellipse class="cls-2" cx="438.75" cy="974.51" rx="6.29" ry="6.38"/>
      <ellipse class="cls-2" cx="480.71" cy="931.93" rx="6.29" ry="6.38"/>
      <ellipse class="cls-2" cx="438.75" cy="931.93" rx="6.29" ry="6.38"/>
      <path class="cls-2" d="M417.78,989.38c-3.47,0-6.29,2.86-6.29,6.38v.02h0c.18,3.53,3.14,6.24,6.61,6.06,3.23-.17,5.81-2.79,5.97-6.06h0c0-3.53-2.82-6.4-6.3-6.4Z"/>
      <ellipse class="cls-2" cx="417.78" cy="953.22" rx="6.29" ry="6.38"/>
      <path class="cls-2" d="M459.73,1074.58c-3.47,0-6.29,2.86-6.29,6.38h0c.18,3.53,3.14,6.24,6.61,6.06,3.23-.17,5.81-2.79,5.97-6.06h0c0-3.52-2.81-6.38-6.29-6.38h-.02Z"/>
      <ellipse class="cls-2" cx="459.73" cy="1038.39" rx="6.29" ry="6.38"/>
      <ellipse class="cls-2" cx="480.71" cy="1059.67" rx="6.29" ry="6.38"/>
      <ellipse class="cls-2" cx="438.75" cy="1059.67" rx="6.29" ry="6.38"/>
      <ellipse class="cls-2" cx="480.71" cy="1017.1" rx="6.29" ry="6.38"/>
      <ellipse class="cls-2" cx="438.75" cy="1017.1" rx="6.29" ry="6.38"/>
      <path class="cls-2" d="M417.78,1074.58c-3.47,0-6.29,2.86-6.29,6.38h0c.18,3.53,3.14,6.24,6.61,6.06,3.23-.17,5.81-2.79,5.97-6.06h0c0-3.52-2.81-6.38-6.29-6.38h-.02Z"/>
      <ellipse class="cls-2" cx="417.78" cy="1038.39" rx="6.29" ry="6.38"/>
      <path class="cls-2" d="M459.73,1159.74c-3.47,0-6.29,2.86-6.29,6.38h0c-.18,3.53,2.5,6.53,5.97,6.71,3.48.18,6.44-2.54,6.61-6.06.01-.22.01-.43,0-.65h0c0-3.52-2.81-6.38-6.29-6.38h-.02Z"/>
      <ellipse class="cls-2" cx="459.73" cy="1123.54" rx="6.29" ry="6.38"/>
      <ellipse class="cls-2" cx="480.71" cy="1144.83" rx="6.29" ry="6.38"/>
      <ellipse class="cls-2" cx="438.75" cy="1144.83" rx="6.29" ry="6.38"/>
      <ellipse class="cls-2" cx="480.71" cy="1102.25" rx="6.29" ry="6.38"/>
      <ellipse class="cls-2" cx="438.75" cy="1102.25" rx="6.29" ry="6.38"/>
      <path class="cls-2" d="M417.78,1159.74c-3.47,0-6.29,2.86-6.29,6.38h0c-.18,3.53,2.5,6.53,5.97,6.71,3.48.18,6.44-2.54,6.61-6.06.01-.22.01-.43,0-.65h0c0-3.52-2.81-6.38-6.29-6.38h-.02Z"/>
      <ellipse class="cls-2" cx="417.78" cy="1123.54" rx="6.29" ry="6.38"/>
      <path class="cls-2" d="M459.73,1244.91c-3.47,0-6.29,2.86-6.29,6.38h0c.18,3.53,3.14,6.24,6.61,6.06,3.23-.17,5.81-2.79,5.97-6.06h0c0-3.52-2.81-6.38-6.29-6.38h-.02Z"/>
      <ellipse class="cls-2" cx="459.73" cy="1208.71" rx="6.29" ry="6.38"/>
      <ellipse class="cls-2" cx="480.71" cy="1230" rx="6.29" ry="6.38"/>
      <ellipse class="cls-2" cx="438.75" cy="1230" rx="6.29" ry="6.38"/>
      <ellipse class="cls-2" cx="480.71" cy="1187.42" rx="6.29" ry="6.38"/>
      <ellipse class="cls-2" cx="438.75" cy="1187.42" rx="6.29" ry="6.38"/>
      <path class="cls-2" d="M417.78,1244.91c-3.47,0-6.29,2.86-6.29,6.38h0c.18,3.53,3.14,6.24,6.61,6.06,3.23-.17,5.81-2.79,5.97-6.06h0c0-3.52-2.81-6.38-6.29-6.38h-.02Z"/>
      <ellipse class="cls-2" cx="417.78" cy="1208.71" rx="6.29" ry="6.38"/>
      <path class="cls-2" d="M459.73,1330.06c-3.47,0-6.29,2.86-6.29,6.38v.02h0c.18,3.53,3.14,6.24,6.61,6.06,3.23-.17,5.81-2.79,5.97-6.06h0c0-3.53-2.82-6.4-6.3-6.4Z"/>
      <ellipse class="cls-2" cx="459.73" cy="1293.88" rx="6.29" ry="6.38"/>
      <ellipse class="cls-2" cx="480.71" cy="1315.17" rx="6.29" ry="6.38"/>
      <ellipse class="cls-2" cx="438.75" cy="1315.17" rx="6.29" ry="6.38"/>
      <ellipse class="cls-2" cx="480.71" cy="1272.58" rx="6.29" ry="6.38"/>
      <ellipse class="cls-2" cx="438.75" cy="1272.58" rx="6.29" ry="6.38"/>
      <path class="cls-2" d="M417.78,1330.06c-3.47,0-6.29,2.86-6.29,6.38v.02h0c.18,3.53,3.14,6.24,6.61,6.06,3.23-.17,5.81-2.79,5.97-6.06h0c0-3.53-2.82-6.4-6.3-6.4Z"/>
      <ellipse class="cls-2" cx="417.78" cy="1293.88" rx="6.29" ry="6.38"/>
      <path class="cls-2" d="M459.73,1415.23c-3.47,0-6.29,2.86-6.29,6.38v.02h0c.18,3.53,3.14,6.24,6.61,6.06,3.23-.17,5.81-2.79,5.97-6.06h0c0-3.53-2.82-6.4-6.3-6.4Z"/>
      <ellipse class="cls-2" cx="459.73" cy="1379.04" rx="6.29" ry="6.38"/>
      <ellipse class="cls-2" cx="480.71" cy="1400.33" rx="6.29" ry="6.38"/>
      <ellipse class="cls-2" cx="438.75" cy="1400.33" rx="6.29" ry="6.38"/>
      <ellipse class="cls-2" cx="480.71" cy="1357.75" rx="6.29" ry="6.38"/>
      <ellipse class="cls-2" cx="438.75" cy="1357.75" rx="6.29" ry="6.38"/>
      <path class="cls-2" d="M417.78,1415.23c-3.47,0-6.29,2.86-6.29,6.38v.02h0c.18,3.53,3.14,6.24,6.61,6.06,3.23-.17,5.81-2.79,5.97-6.06h0c0-3.53-2.82-6.4-6.3-6.4Z"/>
      <ellipse class="cls-2" cx="417.78" cy="1379.04" rx="6.29" ry="6.38"/>
      <path class="cls-2" d="M453.44,1506.79h0v.71l.85-.73c2.36-2,4.71-4.03,7.04-6.13-.53-.16-1.08-.24-1.63-.25-3.47.02-6.26,2.88-6.25,6.4Z"/>
      <ellipse class="cls-2" cx="459.73" cy="1464.21" rx="6.29" ry="6.38"/>
      <path class="cls-2" d="M495.4,1464.21c0,.56.09,1.12.24,1.65,2.04-2.31,4.04-4.65,6.04-7.03l.83-.98c-.27-.04-.55-.07-.83-.08-3.47,0-6.29,2.86-6.29,6.38,0,.02,0,.03,0,.05Z"/>
      <path class="cls-2" d="M474.42,1485.49c0,.83.15,1.66.47,2.43,2.76-2.71,5.47-5.47,8.14-8.27-.76-.31-1.57-.47-2.39-.48-3.42.04-6.19,2.84-6.22,6.31Z"/>
      <ellipse class="cls-2" cx="438.75" cy="1485.49" rx="6.29" ry="6.38"/>
      <ellipse class="cls-2" cx="480.71" cy="1442.92" rx="6.29" ry="6.38"/>
      <ellipse class="cls-2" cx="438.75" cy="1442.92" rx="6.29" ry="6.38"/>
      <path class="cls-2" d="M417.78,1500.4c-3.47,0-6.29,2.86-6.29,6.38h0c.18,3.53,3.14,6.24,6.61,6.06,3.23-.17,5.81-2.79,5.97-6.06h0c0-3.52-2.81-6.38-6.29-6.38h-.02Z"/>
      <ellipse class="cls-2" cx="417.78" cy="1464.21" rx="6.29" ry="6.38"/>
      <path class="cls-2" d="M375.87,989.38c-3.47,0-6.29,2.86-6.29,6.38v.02h0c.18,3.53,3.14,6.24,6.61,6.06,3.23-.17,5.81-2.79,5.97-6.06h0c0-3.53-2.82-6.4-6.3-6.4Z"/>
      <ellipse class="cls-2" cx="375.83" cy="953.22" rx="6.29" ry="6.38"/>
      <ellipse class="cls-2" cx="396.8" cy="974.51" rx="6.29" ry="6.38"/>
      <ellipse class="cls-2" cx="354.87" cy="974.51" rx="6.29" ry="6.38"/>
      <ellipse class="cls-2" cx="396.8" cy="931.93" rx="6.29" ry="6.38"/>
      <path class="cls-2" d="M333.89,989.38c-3.48,0-6.3,2.86-6.3,6.4h0c.18,3.53,3.14,6.24,6.61,6.06,3.23-.17,5.81-2.79,5.97-6.06h0c0-3.52-2.8-6.39-6.27-6.4h-.02Z"/>
      <path class="cls-2" d="M375.87,1074.58c-3.47,0-6.29,2.86-6.29,6.38h0c.18,3.53,3.14,6.24,6.61,6.06,3.23-.17,5.81-2.79,5.97-6.06h0c0-3.52-2.81-6.38-6.29-6.38h-.02Z"/>
      <ellipse class="cls-2" cx="375.83" cy="1038.39" rx="6.29" ry="6.38"/>
      <ellipse class="cls-2" cx="396.8" cy="1059.67" rx="6.29" ry="6.38"/>
      <ellipse class="cls-2" cx="354.87" cy="1059.67" rx="6.29" ry="6.38"/>
      <ellipse class="cls-2" cx="396.8" cy="1017.1" rx="6.29" ry="6.38"/>
      <ellipse class="cls-2" cx="354.87" cy="1017.1" rx="6.29" ry="6.38"/>
      <path class="cls-2" d="M333.89,1074.58c-3.47,0-6.29,2.84-6.3,6.36v.02h0c.18,3.53,3.14,6.24,6.61,6.06,3.23-.17,5.81-2.79,5.97-6.06h0c0-3.52-2.81-6.38-6.29-6.38Z"/>
      <ellipse class="cls-2" cx="333.89" cy="1038.39" rx="6.29" ry="6.38"/>
      <path class="cls-2" d="M375.87,1159.74c-3.47,0-6.29,2.86-6.29,6.38h0c-.18,3.53,2.5,6.53,5.97,6.71,3.48.18,6.44-2.54,6.61-6.06.01-.22.01-.43,0-.65h0c0-3.52-2.81-6.38-6.29-6.38h-.02Z"/>
      <ellipse class="cls-2" cx="375.83" cy="1123.54" rx="6.29" ry="6.38"/>
      <ellipse class="cls-2" cx="396.8" cy="1144.83" rx="6.29" ry="6.38"/>
      <ellipse class="cls-2" cx="354.87" cy="1144.83" rx="6.29" ry="6.38"/>
      <ellipse class="cls-2" cx="396.8" cy="1102.25" rx="6.29" ry="6.38"/>
      <ellipse class="cls-2" cx="354.87" cy="1102.25" rx="6.29" ry="6.38"/>
      <path class="cls-2" d="M333.89,1159.74c-3.47,0-6.29,2.84-6.3,6.36v.02h0c-.18,3.53,2.5,6.53,5.97,6.71,3.48.18,6.44-2.54,6.61-6.06.01-.22.01-.43,0-.65h0c0-3.52-2.81-6.38-6.29-6.38Z"/>
      <ellipse class="cls-2" cx="333.89" cy="1123.54" rx="6.29" ry="6.38"/>
      <path class="cls-2" d="M375.87,1244.91c-3.47,0-6.29,2.86-6.29,6.38h0c.18,3.53,3.14,6.24,6.61,6.06,3.23-.17,5.81-2.79,5.97-6.06h0c0-3.52-2.81-6.38-6.29-6.38h-.02Z"/>
      <ellipse class="cls-2" cx="375.83" cy="1208.71" rx="6.29" ry="6.38"/>
      <ellipse class="cls-2" cx="396.8" cy="1230" rx="6.29" ry="6.38"/>
      <ellipse class="cls-2" cx="354.87" cy="1230" rx="6.29" ry="6.38"/>
      <ellipse class="cls-2" cx="396.8" cy="1187.42" rx="6.29" ry="6.38"/>
      <ellipse class="cls-2" cx="354.87" cy="1187.42" rx="6.29" ry="6.38"/>
      <path class="cls-2" d="M333.89,1244.91c-3.47,0-6.29,2.84-6.3,6.36v.02h0c.18,3.53,3.14,6.24,6.61,6.06,3.23-.17,5.81-2.79,5.97-6.06h0c0-3.52-2.81-6.38-6.29-6.38Z"/>
      <ellipse class="cls-2" cx="333.89" cy="1208.71" rx="6.29" ry="6.38"/>
      <path class="cls-2" d="M375.87,1330.06c-3.47,0-6.29,2.86-6.29,6.38v.02h0c.18,3.53,3.14,6.24,6.61,6.06,3.23-.17,5.81-2.79,5.97-6.06h0c0-3.53-2.82-6.4-6.3-6.4Z"/>
      <ellipse class="cls-2" cx="375.83" cy="1293.88" rx="6.29" ry="6.38"/>
      <ellipse class="cls-2" cx="396.8" cy="1315.17" rx="6.29" ry="6.38"/>
      <ellipse class="cls-2" cx="354.87" cy="1315.17" rx="6.29" ry="6.38"/>
      <ellipse class="cls-2" cx="396.8" cy="1272.58" rx="6.29" ry="6.38"/>
      <ellipse class="cls-2" cx="354.87" cy="1272.58" rx="6.29" ry="6.38"/>
      <path class="cls-2" d="M333.89,1330.06c-3.48,0-6.3,2.86-6.3,6.4h0c.18,3.53,3.14,6.24,6.61,6.06,3.23-.17,5.81-2.79,5.97-6.06h0c0-3.52-2.8-6.39-6.27-6.4h-.02Z"/>
      <ellipse class="cls-2" cx="333.89" cy="1293.88" rx="6.29" ry="6.38"/>
      <path class="cls-2" d="M375.87,1415.23c-3.47,0-6.29,2.86-6.29,6.38v.02h0c.18,3.53,3.14,6.24,6.61,6.06,3.23-.17,5.81-2.79,5.97-6.06h0c0-3.53-2.82-6.4-6.3-6.4Z"/>
      <ellipse class="cls-2" cx="375.83" cy="1379.04" rx="6.29" ry="6.38"/>
      <ellipse class="cls-2" cx="396.8" cy="1400.33" rx="6.29" ry="6.38"/>
      <ellipse class="cls-2" cx="354.87" cy="1400.33" rx="6.29" ry="6.38"/>
      <ellipse class="cls-2" cx="396.8" cy="1357.75" rx="6.29" ry="6.38"/>
      <ellipse class="cls-2" cx="354.87" cy="1357.75" rx="6.29" ry="6.38"/>
      <path class="cls-2" d="M333.89,1415.23c-3.48,0-6.3,2.86-6.3,6.4h0c.18,3.53,3.14,6.24,6.61,6.06,3.23-.17,5.81-2.79,5.97-6.06h0c0-3.52-2.8-6.39-6.27-6.4h-.02Z"/>
      <ellipse class="cls-2" cx="333.89" cy="1379.04" rx="6.29" ry="6.38"/>
      <path class="cls-2" d="M375.87,1500.4c-3.47,0-6.29,2.86-6.29,6.38h0c.18,3.53,3.14,6.24,6.61,6.06,3.23-.17,5.81-2.79,5.97-6.06h0c0-3.52-2.81-6.38-6.29-6.38h-.02Z"/>
      <ellipse class="cls-2" cx="375.83" cy="1464.21" rx="6.29" ry="6.38"/>
      <ellipse class="cls-2" cx="396.8" cy="1485.49" rx="6.29" ry="6.38"/>
      <ellipse class="cls-2" cx="354.87" cy="1485.49" rx="6.29" ry="6.38"/>
      <ellipse class="cls-2" cx="396.8" cy="1442.92" rx="6.29" ry="6.38"/>
      <ellipse class="cls-2" cx="354.87" cy="1442.92" rx="6.29" ry="6.38"/>
      <path class="cls-2" d="M333.89,1500.4c-3.47,0-6.29,2.84-6.3,6.36v.02h0c.18,3.53,3.14,6.24,6.61,6.06,3.23-.17,5.81-2.79,5.97-6.06h0c0-3.52-2.81-6.38-6.29-6.38Z"/>
      <ellipse class="cls-2" cx="333.89" cy="1464.21" rx="6.29" ry="6.38"/>
      <path class="cls-2" d="M375.87,1542.98c-3.47-.04-6.31,2.79-6.35,6.32-.03,3.08,2.11,5.75,5.1,6.33,2.12-.82,4.23-1.66,6.35-2.53.78-1.08,1.21-2.39,1.21-3.74,0-3.52-2.81-6.38-6.29-6.38h-.02Z"/>
      <ellipse class="cls-2" cx="396.8" cy="1528.07" rx="6.29" ry="6.38"/>
      <ellipse class="cls-2" cx="354.87" cy="1528.07" rx="6.29" ry="6.38"/>
      <ellipse class="cls-2" cx="333.89" cy="1549.36" rx="6.29" ry="6.38"/>
      <path class="cls-2" d="M291.94,1074.58c-3.47,0-6.29,2.84-6.3,6.36v.02h0c.18,3.53,3.14,6.24,6.61,6.06,3.23-.17,5.81-2.79,5.97-6.06h0c0-3.52-2.81-6.38-6.29-6.38Z"/>
      <ellipse class="cls-2" cx="291.94" cy="1038.39" rx="6.29" ry="6.38"/>
      <ellipse class="cls-2" cx="312.91" cy="1059.67" rx="6.29" ry="6.38"/>
      <ellipse class="cls-2" cx="270.96" cy="1059.67" rx="6.29" ry="6.38"/>
      <ellipse class="cls-2" cx="312.91" cy="1017.1" rx="6.29" ry="6.38"/>
      <path class="cls-2" d="M249.99,1074.58c-3.47,0-6.29,2.84-6.3,6.36v.02h0c.18,3.53,3.14,6.24,6.61,6.06,3.23-.17,5.81-2.79,5.97-6.06h0c0-3.52-2.81-6.38-6.29-6.38Z"/>
      <path class="cls-2" d="M291.94,1159.74c-3.47,0-6.29,2.84-6.3,6.36v.02h0c-.18,3.53,2.5,6.53,5.97,6.71,3.48.18,6.44-2.54,6.61-6.06.01-.22.01-.43,0-.65h0c0-3.52-2.81-6.38-6.29-6.38Z"/>
      <ellipse class="cls-2" cx="291.94" cy="1123.54" rx="6.29" ry="6.38"/>
      <ellipse class="cls-2" cx="312.91" cy="1144.83" rx="6.29" ry="6.38"/>
      <ellipse class="cls-2" cx="270.96" cy="1144.83" rx="6.29" ry="6.38"/>
      <ellipse class="cls-2" cx="312.91" cy="1102.25" rx="6.29" ry="6.38"/>
      <ellipse class="cls-2" cx="270.96" cy="1102.25" rx="6.29" ry="6.38"/>
      <path class="cls-2" d="M249.99,1159.74c-3.47,0-6.29,2.84-6.3,6.36v.02h0c-.18,3.53,2.5,6.53,5.97,6.71,3.48.18,6.44-2.54,6.61-6.06.01-.22.01-.43,0-.65h0c0-3.52-2.81-6.38-6.29-6.38Z"/>
      <ellipse class="cls-2" cx="249.99" cy="1123.54" rx="6.29" ry="6.38"/>
      <path class="cls-2" d="M291.94,1244.91c-3.47,0-6.29,2.84-6.3,6.36v.02h0c.18,3.53,3.14,6.24,6.61,6.06,3.23-.17,5.81-2.79,5.97-6.06h0c0-3.52-2.81-6.38-6.29-6.38Z"/>
      <ellipse class="cls-2" cx="291.94" cy="1208.71" rx="6.29" ry="6.38"/>
      <ellipse class="cls-2" cx="312.91" cy="1230" rx="6.29" ry="6.38"/>
      <ellipse class="cls-2" cx="270.96" cy="1230" rx="6.29" ry="6.38"/>
      <ellipse class="cls-2" cx="312.91" cy="1187.42" rx="6.29" ry="6.38"/>
      <ellipse class="cls-2" cx="270.96" cy="1187.42" rx="6.29" ry="6.38"/>
      <path class="cls-2" d="M249.99,1244.91c-3.47,0-6.29,2.84-6.3,6.36v.02h0c.18,3.53,3.14,6.24,6.61,6.06,3.23-.17,5.81-2.79,5.97-6.06h0c0-3.52-2.81-6.38-6.29-6.38Z"/>
      <ellipse class="cls-2" cx="249.99" cy="1208.71" rx="6.29" ry="6.38"/>
      <path class="cls-2" d="M291.94,1330.06c-3.48,0-6.3,2.86-6.3,6.4h0c.18,3.53,3.14,6.24,6.61,6.06,3.23-.17,5.81-2.79,5.97-6.06h0c0-3.52-2.8-6.39-6.27-6.4h-.02Z"/>
      <ellipse class="cls-2" cx="291.94" cy="1293.88" rx="6.29" ry="6.38"/>
      <ellipse class="cls-2" cx="312.91" cy="1315.17" rx="6.29" ry="6.38"/>
      <ellipse class="cls-2" cx="270.96" cy="1315.17" rx="6.29" ry="6.38"/>
      <ellipse class="cls-2" cx="312.91" cy="1272.58" rx="6.29" ry="6.38"/>
      <ellipse class="cls-2" cx="270.96" cy="1272.58" rx="6.29" ry="6.38"/>
      <path class="cls-2" d="M249.99,1330.06c-3.48,0-6.3,2.86-6.3,6.4h0c.18,3.53,3.14,6.24,6.61,6.06,3.23-.17,5.81-2.79,5.97-6.06h0c0-3.52-2.8-6.39-6.27-6.4h-.02Z"/>
      <ellipse class="cls-2" cx="249.99" cy="1293.88" rx="6.29" ry="6.38"/>
      <path class="cls-2" d="M291.94,1415.23c-3.48,0-6.3,2.86-6.3,6.4h0c.18,3.53,3.14,6.24,6.61,6.06,3.23-.17,5.81-2.79,5.97-6.06h0c0-3.52-2.8-6.39-6.27-6.4h-.02Z"/>
      <ellipse class="cls-2" cx="291.94" cy="1379.04" rx="6.29" ry="6.38"/>
      <ellipse class="cls-2" cx="312.91" cy="1400.33" rx="6.29" ry="6.38"/>
      <ellipse class="cls-2" cx="270.96" cy="1400.33" rx="6.29" ry="6.38"/>
      <ellipse class="cls-2" cx="312.91" cy="1357.75" rx="6.29" ry="6.38"/>
      <ellipse class="cls-2" cx="270.96" cy="1357.75" rx="6.29" ry="6.38"/>
      <path class="cls-2" d="M249.99,1415.23c-3.48,0-6.3,2.86-6.3,6.4h0c.18,3.53,3.14,6.24,6.61,6.06,3.23-.17,5.81-2.79,5.97-6.06h0c0-3.52-2.8-6.39-6.27-6.4h-.02Z"/>
      <ellipse class="cls-2" cx="249.99" cy="1379.04" rx="6.29" ry="6.38"/>
      <path class="cls-2" d="M291.94,1500.4c-3.47,0-6.29,2.84-6.3,6.36v.02h0c.18,3.53,3.14,6.24,6.61,6.06,3.23-.17,5.81-2.79,5.97-6.06h0c0-3.52-2.81-6.38-6.29-6.38Z"/>
      <ellipse class="cls-2" cx="291.94" cy="1464.21" rx="6.29" ry="6.38"/>
      <ellipse class="cls-2" cx="312.91" cy="1485.49" rx="6.29" ry="6.38"/>
      <ellipse class="cls-2" cx="270.96" cy="1485.49" rx="6.29" ry="6.38"/>
      <ellipse class="cls-2" cx="312.91" cy="1442.92" rx="6.29" ry="6.38"/>
      <ellipse class="cls-2" cx="270.96" cy="1442.92" rx="6.29" ry="6.38"/>
      <path class="cls-2" d="M249.99,1500.4c-3.47,0-6.29,2.84-6.3,6.36v.02h0c.18,3.53,3.14,6.24,6.61,6.06,3.23-.17,5.81-2.79,5.97-6.06h0c0-3.52-2.81-6.38-6.29-6.38Z"/>
      <ellipse class="cls-2" cx="249.99" cy="1464.21" rx="6.29" ry="6.38"/>
      <ellipse class="cls-2" cx="291.94" cy="1549.36" rx="6.29" ry="6.38"/>
      <path class="cls-2" d="M312.91,1564.27c-2.07,0-4.01,1.03-5.18,2.76,3.45.2,6.95.25,10.46.18-1.15-1.83-3.14-2.94-5.28-2.94Z"/>
      <ellipse class="cls-2" cx="312.91" cy="1528.07" rx="6.29" ry="6.38"/>
      <ellipse class="cls-2" cx="270.96" cy="1528.07" rx="6.29" ry="6.38"/>
      <path class="cls-2" d="M249.99,1542.98c-2.28,0-4.38,1.27-5.47,3.31,1.79,1.19,3.62,2.33,5.47,3.44,1.86,1.11,3.53,2.03,5.34,2.99.61-.99.94-2.14.94-3.31.03-3.52-2.77-6.4-6.24-6.43-.02,0-.03,0-.05,0Z"/>
      <path class="cls-2" d="M208.03,1159.74c-3.47,0-6.29,2.86-6.29,6.38h0c0,3.52,2.8,6.39,6.27,6.4,3.47,0,6.29-2.84,6.3-6.36v-.04h0c0-3.52-2.81-6.38-6.29-6.38Z"/>
      <ellipse class="cls-2" cx="229.01" cy="1144.83" rx="6.29" ry="6.38"/>
      <path class="cls-2" d="M232.35,1096.83c-1.99,3.7-3.92,7.46-5.85,11.24.79.36,1.64.55,2.51.55,3.47-.05,6.25-2.94,6.2-6.46-.03-2.17-1.14-4.17-2.95-5.32h.08Z"/>
      <path class="cls-2" d="M208.03,1244.91c-3.47,0-6.29,2.86-6.29,6.38h0c0,3.52,2.8,6.39,6.27,6.4,3.47,0,6.29-2.84,6.3-6.36v-.04h0c0-3.52-2.81-6.38-6.29-6.38Z"/>
      <ellipse class="cls-2" cx="208.03" cy="1208.71" rx="6.29" ry="6.38"/>
      <ellipse class="cls-2" cx="229.01" cy="1230" rx="6.29" ry="6.38"/>
      <path class="cls-2" d="M187.06,1223.62c-2.45,0-4.68,1.44-5.7,3.7l-.54,2.07v.61c0,3.52,2.81,6.38,6.29,6.38s6.29-2.86,6.29-6.38c0-3.52-2.81-6.38-6.29-6.38h-.05Z"/>
      <ellipse class="cls-2" cx="229.01" cy="1187.42" rx="6.29" ry="6.38"/>
      <path class="cls-2" d="M191.85,1191.48c.94-1.14,1.46-2.58,1.47-4.07,0-.1,0-.21,0-.31-.49,1.45-.96,2.93-1.47,4.38Z"/>
      <path class="cls-2" d="M208.03,1330.06c-3.47,0-6.29,2.86-6.29,6.38v.02h0c0,3.52,2.8,6.39,6.27,6.4,3.47,0,6.29-2.84,6.3-6.36v-.04h0c0-3.52-2.8-6.39-6.27-6.4h-.02Z"/>
      <ellipse class="cls-2" cx="208.03" cy="1293.88" rx="6.29" ry="6.38"/>
      <ellipse class="cls-2" cx="229.01" cy="1315.17" rx="6.29" ry="6.38"/>
      <ellipse class="cls-2" cx="187.06" cy="1315.17" rx="6.29" ry="6.38"/>
      <ellipse class="cls-2" cx="229.01" cy="1272.58" rx="6.29" ry="6.38"/>
      <ellipse class="cls-2" cx="187.06" cy="1272.58" rx="6.29" ry="6.38"/>
      <path class="cls-2" d="M166.08,1330.06c-.22.01-.44.04-.65.08-.11,2.1-.2,4.22-.26,6.31s-.13,4.18-.18,6.28c.36.06.73.09,1.09.1,3.42-.04,6.19-2.84,6.22-6.31h0c.05-3.52-2.73-6.42-6.2-6.46,0,0-.01,0-.02,0Z"/>
      <path class="cls-2" d="M169.29,1288.4c-.52,3.88-1.01,7.74-1.43,11.57,3.32-.97,5.23-4.49,4.27-7.86-.44-1.56-1.46-2.89-2.84-3.71Z"/>
      <path class="cls-2" d="M208.03,1415.23c-3.47,0-6.29,2.86-6.29,6.38v.02h0c0,3.52,2.8,6.39,6.27,6.4,3.47,0,6.29-2.84,6.3-6.36v-.04h0c0-3.52-2.8-6.39-6.27-6.4h-.02Z"/>
      <ellipse class="cls-2" cx="208.03" cy="1379.04" rx="6.29" ry="6.38"/>
      <ellipse class="cls-2" cx="229.01" cy="1400.33" rx="6.29" ry="6.38"/>
      <ellipse class="cls-2" cx="187.06" cy="1400.33" rx="6.29" ry="6.38"/>
      <ellipse class="cls-2" cx="229.01" cy="1357.75" rx="6.29" ry="6.38"/>
      <ellipse class="cls-2" cx="187.06" cy="1357.75" rx="6.29" ry="6.38"/>
      <path class="cls-2" d="M171.5,1421.63c.15.74.29,1.49.46,2.25.26-.72.4-1.48.41-2.25h0c.02-1.61-.56-3.16-1.63-4.35.2,1.45.47,2.89.77,4.35Z"/>
      <path class="cls-2" d="M166.08,1372.65h-.59c.16,2.99.36,5.95.59,8.91.1,1.26.2,2.53.29,3.77,3.46-.24,6.08-3.29,5.84-6.8-.22-3.29-2.88-5.87-6.13-5.94v.07Z"/>
      <path class="cls-2" d="M208.03,1500.4c-2.07,0-4.01,1.04-5.18,2.78.78,1.22,1.63,2.43,2.38,3.6,1.43,2.1,2.92,4.15,4.41,6.15,2.75-.72,4.68-3.25,4.67-6.13h0c0-3.52-2.8-6.39-6.27-6.4h-.02Z"/>
      <ellipse class="cls-2" cx="208.03" cy="1464.21" rx="6.29" ry="6.38"/>
      <ellipse class="cls-2" cx="229.01" cy="1485.49" rx="6.29" ry="6.38"/>
      <path class="cls-2" d="M190.04,1479.9c1.04,2.23,2.12,4.43,3.26,6.61.49-2.69-.84-5.39-3.26-6.61Z"/>
      <ellipse class="cls-2" cx="229.01" cy="1442.92" rx="6.29" ry="6.38"/>
      <ellipse class="cls-2" cx="187.06" cy="1442.92" rx="6.29" ry="6.38"/>
      <path class="cls-2" d="M229.01,1521.67c-3.47,0-6.29,2.84-6.3,6.36v.15c2.12,2.2,4.29,4.28,6.51,6.23,3.46-.23,6.09-3.27,5.86-6.78-.21-3.28-2.84-5.86-6.08-5.96Z"/>
      <path class="cls-8" d="M514.5,993.86c-15.37-7.73-34-3.15-44.18,10.86l17.77-36.1c8.57-17.75,1.35-39.19-16.13-47.89-15.26-7.6-33.69-3.06-43.83,10.8l13.42-27.28c8.43-17.82,1.03-39.2-16.52-47.76-17.17-8.37-37.78-1.39-46.56,15.77l-6.76,13.7c5.65-18.92-4.88-38.9-23.51-44.63-16.45-5.06-34.1,2.65-41.78,18.27l-125.01,253.93c-.15.3-.26.58-.41.88-.29.58-.59,1.14-.86,1.65l-1.51,3.07c-16.12,32.78-19.12,70.61-8.37,105.58l-116.62,236.89,179.94,14.71,85.17-152.22c44.45-4.81,83.99-30.8,106.51-69.99,1.14-1.59,2.16-3.28,3.03-5.04l102-207.17c8.64-17.69,1.6-39.15-15.78-48.04Z"/>
      <path class="cls-2" d="M233.57,1483.39h-.55l-179.94-14.71c-3.85-.31-6.72-3.72-6.42-7.62.07-.91.31-1.81.72-2.63l115.38-234.31c-10.35-35.97-6.91-74.58,9.61-108.1l1.51-3.07.64-1.27.24-.48c.13-.28.26-.58.41-.86l124.99-253.9c10.54-21.19,36.01-29.69,56.88-18.99,9.48,4.86,16.82,13.16,20.56,23.26,12.58-15.19,33.78-19.66,51.28-10.81,20.83,10.62,29.28,36.34,18.91,57.53l-1.82,3.74c22.67-5.84,45.71,8.08,51.46,31.09,2.48,9.94,1.39,20.44-3.09,29.63l-6.19,12.55c9.88-2.59,20.34-1.46,29.46,3.17h0c20.84,10.62,29.3,36.35,18.92,57.54l-102.03,207.08c-.99,2-2.13,3.92-3.4,5.74-23.07,39.82-62.92,66.65-108.04,72.74l-83.45,149.11c-1.23,2.21-3.54,3.58-6.04,3.59ZM64.52,1455.28l165.17,13.51,83.06-148.28c1.11-1.98,3.09-3.31,5.33-3.55,42.17-4.63,79.68-29.25,101.13-66.39.11-.21.25-.42.39-.61.91-1.28,1.73-2.64,2.43-4.05l102.05-207.2c6.92-14.18,1.28-31.37-12.64-38.5-12.34-6.11-27.21-2.45-35.42,8.71-2.26,3.18-6.63,3.89-9.75,1.6-2.79-2.05-3.7-5.86-2.13-8.97l17.77-36.1c6.91-14.18,1.26-31.37-12.65-38.5-12.33-6.12-27.21-2.46-35.42,8.7-2.26,3.18-6.63,3.89-9.75,1.6-2.79-2.05-3.7-5.86-2.13-8.97l13.42-27.28c6.98-14.19,1.31-31.44-12.67-38.53-13.98-7.09-30.98-1.33-37.96,12.86l-6.76,13.72c-1.69,3.52-5.88,4.98-9.35,3.26-3.1-1.54-4.63-5.14-3.6-8.48,4.5-15.18-3.96-31.18-18.91-35.76-13.16-4.02-27.27,2.14-33.43,14.61l-125.01,254-.31.69s0,.18-.13.26l-.29.58c-.18.35-.37.71-.54,1.06l-1.51,3.07c-15.34,31.13-18.18,67.09-7.93,100.31.53,1.75.37,3.64-.44,5.27l-111.98,227.37Z"/>
      <path class="cls-10" d="M309.75,1469.33c-1.09,0-2.16-.26-3.13-.76l-224.17-113.72c-3.46-1.74-4.87-6-3.15-9.51,0,0,0-.01,0-.02l31.27-63.5c1.7-3.5,5.87-4.93,9.31-3.21.02.01.05.02.07.03l224.19,113.72c3.45,1.75,4.85,6.01,3.13,9.51h0s-31.27,63.57-31.27,63.57c-.83,1.68-2.28,2.96-4.04,3.55-.72.23-1.46.33-2.21.31Z"/>
      <path class="cls-2" d="M347.28,1386.12l-224.19-113.72c-1.93-.99-4.07-1.51-6.24-1.5-5.3,0-10.15,3.04-12.52,7.85l-31.27,63.5c-3.45,7.02-.64,15.54,6.27,19.04l224.17,113.72c1.94.98,4.08,1.5,6.25,1.5,1.51,0,3-.25,4.43-.73,3.54-1.18,6.47-3.74,8.14-7.12l31.27-63.5c3.44-7.02.62-15.55-6.3-19.04,0,0-.01,0-.02,0ZM309.82,1462.31l-224.19-113.72,31.27-63.5,224.19,113.72-31.27,63.5Z"/>
      <path class="cls-11" d="M6.99,1492.61s212.5,141.04,313.09,0l10.8-22.04-250.8-127.21L6.99,1492.61Z"/>
      <path class="cls-2" d="M193.83,1562.32c-23.6-.24-47.06-3.58-69.82-9.92-66.02-17.7-118.64-52.34-120.86-53.81-2.96-1.97-4-5.88-2.43-9.09l73.11-149.24c1.73-3.51,5.93-4.94,9.4-3.19l250.8,127.29c3.45,1.74,4.86,6,3.14,9.51l-10.81,22.04c-.16.35-.36.69-.59,1.01-31.02,43.31-75.94,65.41-131.95,65.41ZM16.09,1489.98c14.89,9.11,59.59,34.71,111.8,48.73,83.72,22.38,146.36,5.64,186.19-49.79l7.43-15.18-238.26-120.86-67.16,137.09Z"/>
      <path class="cls-2" d="M258.62,1451.91s-50.84,72.85-104,59.36c0,0,63.79,45.15,108.98,1.65,45.19-43.49-4.98-61.02-4.98-61.02Z"/>
      <polygon class="cls-10" points="94.91 1373.62 44.1 1487.35 125.92 1395.23 94.91 1373.62"/>
      <path class="cls-8" d="M1823.2,993.86c15.38-7.72,33.99-3.15,44.18,10.86l-17.78-36.1c-8.71-17.68-1.65-39.18,15.76-48.02,15.37-7.8,34.04-3.22,44.2,10.84l-13.42-27.28c-8.7-17.68-1.63-39.18,15.79-48.01,17.42-8.83,38.6-1.66,47.3,16.03l6.74,13.7c-5.65-18.92,4.88-38.9,23.51-44.63,16.45-5.06,34.1,2.65,41.78,18.27l125.01,253.93c.15.3.28.58.41.88l.88,1.65,1.5,3.07c16.13,32.77,19.13,70.61,8.37,105.58l116.62,236.89-179.94,14.71-85.17-152.22c-44.45-4.81-83.99-30.8-106.51-69.99-1.14-1.59-2.16-3.28-3.03-5.04l-102.01-207.1c-8.65-17.7-1.58-39.16,15.81-48.02Z"/>
      <path class="cls-2" d="M2104.12,1483.39c-2.51,0-4.83-1.37-6.07-3.59l-83.43-149.11c-45.12-6.08-84.97-32.91-108.04-72.74-1.29-1.81-2.44-3.73-3.42-5.74l-101.98-207.17c-10.38-21.19-1.93-46.92,18.91-57.54h0c9.12-4.64,19.59-5.76,29.46-3.17l-6.19-12.55c-10.38-21.27-1.81-47.06,19.15-57.59,9.06-4.55,19.42-5.67,29.22-3.14l-1.82-3.72c-10.11-21.4-1.21-47.08,19.88-57.34,17.21-8.38,37.82-4.03,50.32,10.62,8.22-22.22,32.63-33.47,54.52-25.13,9.95,3.79,18.13,11.24,22.91,20.87l125.01,253.92c.13.26.26.55.37.81l.26.53c.23.41.44.84.65,1.26l1.5,3.07c16.52,33.51,19.95,72.12,9.61,108.1l115.38,234.38c1.73,3.5.34,7.76-3.11,9.52-.81.41-1.69.66-2.59.73l-179.92,14.71-.57.02ZM1826.33,1000.2c-13.93,7.12-19.59,24.32-12.65,38.5l101.98,207.17c.7,1.41,1.51,2.76,2.43,4.03.15.2.28.41.41.63,21.44,37.19,58.99,61.86,101.2,66.49,2.23.25,4.22,1.57,5.33,3.55l82.98,148.28,165.19-13.51-112-227.48c-.81-1.64-.96-3.53-.42-5.27,10.25-33.22,7.4-69.18-7.95-100.31l-1.5-3.07-.54-1.04-.31-.6-.11-.25-.33-.71-125.01-253.93c-7-14.17-23.99-19.89-37.95-12.79-12.29,6.25-18.36,20.57-14.4,33.93,1.42,3.65-.34,7.78-3.94,9.22-3.6,1.44-7.67-.35-9.09-4l-6.74-13.72c-6.98-14.18-23.96-19.93-37.93-12.84-13.97,7.08-19.63,24.32-12.65,38.5l13.42,27.28c1.75,3.49.39,7.76-3.05,9.54-3.07,1.59-6.82.67-8.84-2.17-8.22-11.16-23.09-14.81-35.42-8.7-13.92,7.13-19.57,24.32-12.65,38.5l17.78,36.1c1.75,3.49.39,7.76-3.05,9.54-3.07,1.59-6.82.67-8.84-2.17-8.22-11.16-23.09-14.82-35.42-8.71h.08Z"/>
      <path class="cls-10" d="M2027.93,1469.33c-2.65,0-5.07-1.52-6.25-3.93l-31.27-63.5c-.82-1.69-.96-3.63-.37-5.42.59-1.79,1.86-3.26,3.52-4.1l224.24-113.72c3.43-1.76,7.61-.37,9.35,3.1.01.02.02.05.03.07l31.27,63.5c1.72,3.51.32,7.76-3.13,9.52l-224.19,113.72c-.99.51-2.08.77-3.19.76Z"/>
      <path class="cls-2" d="M2264.63,1342.16l-31.27-63.5c-1.67-3.38-4.6-5.95-8.14-7.12-1.43-.48-2.92-.72-4.43-.73-2.17,0-4.31.52-6.25,1.5l-224.12,113.8c-6.9,3.51-9.69,12.03-6.25,19.04l31.27,63.5c2.37,4.81,7.22,7.85,12.52,7.85,2.17,0,4.3-.51,6.24-1.5l224.19-113.72c6.92-3.49,9.74-12.01,6.3-19.04-.01-.03-.03-.06-.04-.09ZM2027.93,1462.16l-31.27-63.5,224.19-113.72,31.27,63.5-224.19,113.72Z"/>
      <path class="cls-11" d="M2333.04,1501.12s-212.5,141.04-313.09,0l-10.8-22.04,250.8-127.29,73.09,149.32Z"/>
      <path class="cls-2" d="M2146.13,1570.85c-56.01,0-100.97-22.12-131.91-65.56-.23-.31-.43-.65-.6-.99l-10.8-22.05c-1.71-3.51-.3-7.75,3.14-9.51l250.8-127.29c3.46-1.75,7.66-.32,9.4,3.19l73.11,149.24c1.58,3.22.54,7.13-2.43,9.11-2.21,1.45-54.83,36.09-120.86,53.81-22.76,6.39-46.24,9.77-69.85,10.05ZM2025.88,1497.44c39.87,55.49,102.6,72.22,186.49,49.72,52.11-14,96.67-39.56,111.51-48.65l-67.16-137.11-238.26,120.86,7.43,15.18Z"/>
      <path class="cls-2" d="M2086.93,1466.82s50.83,72.85,104,59.36c0,0-63.81,45.15-108.98,1.65-45.18-43.49,4.98-61.02,4.98-61.02Z"/>
      <polygon class="cls-10" points="2249.22 1379.65 2300.02 1493.39 2218.2 1401.28 2249.22 1379.65"/>
      <path class="cls-1" d="M1161.11,674.64c468.83,0,848.91,148.78,849.04,332.39V339.58c0-183.63-380.13-332.49-849.04-332.49S312.07,155.95,312.07,339.58v667.52c.03-183.61,380.14-332.45,849.04-332.45Z"/>
      <path class="cls-2" d="M312.07,1014.17h0c-3.86,0-6.99-3.19-7-7.11V339.58c0-91.94,89.91-177.79,253.16-241.72C719.37,34.75,933.48,0,1161.11,0s441.73,34.71,602.88,97.86c163.25,63.93,253.15,149.77,253.15,241.72v667.45c.01,3.92-3.11,7.1-6.96,7.11s-7-3.15-7.01-7.07v-.05c0-42.8-21.74-84.57-64.51-124.15-42.13-39-102.6-74.08-179.78-104.28-159.6-62.47-371.87-96.89-597.69-96.89s-438.25,34.42-597.83,96.9c-77.16,30.22-137.63,65.3-179.76,104.29-42.77,39.59-64.44,81.37-64.46,124.16,0,3.93-3.15,7.1-7.02,7.09-.02,0-.03,0-.05,0ZM1161.11,667.52c227.58,0,441.67,34.71,602.8,97.83,125.86,49.26,208.13,111.57,239.25,179.64V339.58c0-42.8-21.69-84.59-64.44-124.16-42.13-39-102.6-74.09-179.76-104.31-159.6-62.5-371.9-96.9-597.85-96.9s-438.27,34.4-597.85,96.9c-77.16,30.22-137.65,65.31-179.76,104.31-42.77,39.58-64.44,81.37-64.44,124.16v605.44c31.11-68.06,113.38-130.36,239.22-179.62,161.11-63.1,375.22-97.85,602.83-97.85v-.03Z"/>
      <path class="cls-2" d="M312.07,418.53c-3.87,0-7-3.18-7-7.11,0-66.67,47.78-130.96,138.18-185.91,86.57-52.63,208.26-94.61,351.9-121.4,3.83-.53,7.36,2.19,7.89,6.08.49,3.64-1.83,7.06-5.36,7.89-142.01,26.45-262.09,67.78-347.24,119.62-85.96,52.24-131.38,112.31-131.38,173.72,0,3.92-3.11,7.1-6.97,7.11h-.02Z"/>
      <path class="cls-2" d="M312.07,496.85c-3.86,0-6.99-3.19-7-7.11,0-66.67,47.78-130.96,138.18-185.91,86.57-52.63,208.26-94.61,351.9-121.4,3.8-.71,7.44,1.84,8.13,5.69s-1.81,7.55-5.61,8.26h0c-142.01,26.45-262.09,67.86-347.24,119.63-85.96,52.24-131.38,112.31-131.38,173.72,0,3.92-3.13,7.1-6.99,7.11Z"/>
      <path class="cls-2" d="M312.07,575.16c-3.86,0-6.99-3.17-7-7.09,0-106.43,120.94-204.47,331.81-268.97,3.74-1.01,7.57,1.25,8.57,5.04.95,3.62-1.03,7.37-4.53,8.57-98.71,30.19-180.23,69.18-235.72,112.77-57.16,44.83-86.14,92.77-86.14,142.6,0,3.92-3.13,7.09-6.99,7.09Z"/>
      <path class="cls-2" d="M312.07,653.48c-3.86,0-6.99-3.17-7-7.09,0-66.69,47.78-130.96,138.18-185.91,86.57-52.63,208.26-94.62,351.9-121.4,3.8-.71,7.44,1.84,8.13,5.69s-1.81,7.55-5.61,8.26h0c-142.01,26.45-262.09,67.86-347.24,119.62-85.96,52.25-131.38,112.41-131.38,173.74,0,3.92-3.13,7.09-6.99,7.09h0Z"/>
      <path class="cls-2" d="M312.07,731.81c-3.86,0-6.99-3.17-7-7.09,0-49.59,25.86-97.33,76.85-141.7,48.35-42.07,116.93-79.2,203.85-110.34,3.58-1.48,7.67.26,9.13,3.9s-.26,7.78-3.84,9.27c-.21.09-.42.16-.63.23-85.29,30.53-152.37,66.8-199.42,107.73-47.73,41.54-71.95,85.6-71.95,130.92,0,3.92-3.13,7.09-6.99,7.09Z"/>
      <path class="cls-2" d="M312.07,810.13c-3.86,0-6.99-3.17-7-7.09,0-66.69,47.78-130.97,138.18-185.92,86.57-52.62,208.26-94.61,351.9-121.4,3.83-.53,7.36,2.19,7.89,6.08.49,3.64-1.83,7.06-5.36,7.89-142.01,26.45-262.09,67.78-347.24,119.62-85.96,52.24-131.38,112.31-131.38,173.74,0,3.92-3.13,7.09-6.99,7.09h0Z"/>
      <path class="cls-2" d="M312.07,888.54c-3.86,0-6.99-3.19-7-7.11,0-66.67,47.78-130.96,138.18-185.91,86.57-52.62,208.26-94.61,351.9-121.4,3.86-.26,7.19,2.71,7.45,6.62.21,3.29-1.82,6.29-4.93,7.26-142.01,26.45-262.09,67.78-347.24,119.62-85.96,52.24-131.38,112.31-131.38,173.72.04,3.93-3.05,7.14-6.92,7.19-.02,0-.04,0-.07,0Z"/>
      <path class="cls-2" d="M312.07,966.78c-3.86,0-6.99-3.19-7-7.11,0-66.67,47.78-130.96,138.18-185.91,86.57-52.63,208.26-94.61,351.9-121.4,3.8-.71,7.44,1.84,8.13,5.69s-1.81,7.55-5.61,8.26c-142.01,26.45-262.09,67.78-347.24,119.63-85.96,52.24-131.38,112.31-131.38,173.67.03,3.93-3.09,7.13-6.95,7.16-.01,0-.02,0-.03,0Z"/>
      <path class="cls-2" d="M1999.9,418.53c-3.86,0-6.99-3.18-6.99-7.09v-.02c0-103.38-130.43-201.81-348.91-263.32-3.72-1.05-5.9-4.96-4.86-8.74,1.03-3.78,4.89-5.98,8.61-4.93,108.02,30.42,197.82,70.9,259.68,117.11,65.14,48.58,99.47,103.88,99.47,159.89,0,3.93-3.14,7.11-7,7.11Z"/>
      <path class="cls-2" d="M1999.9,496.85c-3.86,0-6.99-3.19-6.99-7.11,0-105.27-134.18-204.75-358.92-266.15-3.73-1.02-5.94-4.91-4.93-8.7,1-3.78,4.84-6.03,8.57-5.01,110.86,30.27,203.13,70.97,266.86,117.72,67,49.16,102.42,105.22,102.42,162,.06,3.93-3.03,7.18-6.9,7.24-.03,0-.07,0-.1,0Z"/>
      <path class="cls-10" d="M312.07,339.58v668.84h0c1.01,106.86,127.83,201.83,324.18,262.36v-667.54c-197.14-60.8-324.18-156.28-324.18-263.67Z"/>
      <path class="cls-2" d="M636.27,1277.89c-.69,0-1.37-.1-2.02-.31-207.79-64.06-327.7-161.89-329.15-268.5V339.58c.19-3.92,3.47-6.95,7.33-6.76,3.6.18,6.48,3.1,6.66,6.76,0,50.22,28.76,98.57,85.5,143.72,55.11,43.87,135.95,83,233.75,113.15,2.95.9,4.97,3.67,4.97,6.79v667.54c0,3.92-3.14,7.1-7,7.11h-.03ZM319.05,1007.84v.51c.49,49.99,29.46,98.11,86.15,143.03,53.38,42.29,130.71,80.16,224.06,109.8v-652.69c-97.23-30.45-177.84-69.83-233.36-114.06-36.69-29.08-62.37-59.91-76.85-91.9v605.31Z"/>
      <path class="cls-2" d="M526.89,646.97l-97.71,99.76c-2.26,2.33-4.89,2.99-6.97,2.12-1.36-.62-2.43-1.75-2.98-3.16-1.91-4.25-.52-10.7,3.08-14.37l97.62-99.68c3.66-3.74,8.14-3.31,10.13.89s.54,10.7-3.16,14.43ZM446.7,611.45c-1.19-4.96-5.34-6.61-9.28-3.8l-51.04,35.89c-4.08,3.28-5.97,8.62-4.89,13.79l15.16,63.58c.34,2.1,1.67,3.91,3.57,4.83,1.89.7,4,.35,5.57-.93,4.11-3.28,6.04-8.64,5-13.84l-13.03-54.75,43.97-30.93c4.1-3.28,6.03-8.64,4.97-13.84ZM567.39,721.28l-14.45-64.17c-1.14-4.96-5.29-6.61-9.28-3.8-4.18,3.31-6.17,8.72-5.16,14l12.47,55.23-44.49,31.41c-4.14,3.3-6.15,8.66-5.21,13.92.29,2.15,1.61,4.01,3.53,4.96,1.9.69,4.03.33,5.6-.96l51.71-36.48c4.22-3.33,6.25-8.77,5.28-14.1Z"/>
      <path class="cls-7" d="M540.26,893.78c-.92,0-1.83-.19-2.69-.55-149.93-63.21-232.51-146.86-232.51-235.55-.19-3.92,2.79-7.25,6.66-7.44,3.86-.19,7.15,2.84,7.33,6.76.01.23.01.46,0,.68,0,82.57,79.51,161.56,223.9,222.44,3.56,1.53,5.23,5.7,3.72,9.32-1.09,2.62-3.61,4.32-6.41,4.34Z"/>
      <path class="cls-7" d="M540.26,974.94c-.92,0-1.83-.19-2.69-.55-149.93-63.21-232.51-146.88-232.51-235.55-.19-3.92,2.79-7.25,6.66-7.44,3.86-.19,7.15,2.84,7.33,6.76.01.23.01.46,0,.68,0,82.57,79.51,161.57,223.9,222.44,3.56,1.53,5.23,5.7,3.72,9.32-1.09,2.62-3.61,4.32-6.41,4.34h0Z"/>
      <path class="cls-7" d="M540.26,1056.11c-.92,0-1.83-.19-2.69-.55-149.93-63.21-232.51-146.88-232.51-235.55.19-3.92,3.47-6.95,7.33-6.76,3.6.18,6.48,3.1,6.66,6.76,0,82.65,79.51,161.57,223.9,222.44,3.56,1.53,5.23,5.7,3.72,9.32-1.09,2.62-3.61,4.32-6.41,4.34h0Z"/>
      <path class="cls-7" d="M540.26,1137.28c-.92,0-1.83-.19-2.69-.55-149.93-63.21-232.51-146.88-232.51-235.55.19-3.92,3.47-6.95,7.33-6.76,3.6.18,6.48,3.1,6.66,6.76,0,82.57,79.51,161.57,223.9,222.44,3.56,1.53,5.23,5.7,3.72,9.32-1.09,2.62-3.61,4.32-6.41,4.34h0Z"/>
      <path class="cls-2" d="M636.27,1277.89c-.69,0-1.37-.1-2.02-.31-207.79-64.06-327.7-161.89-329.15-268.5V339.58c.19-3.92,3.47-6.95,7.33-6.76,3.6.18,6.48,3.1,6.66,6.76,0,50.22,28.76,98.57,85.5,143.72,55.11,43.87,135.95,83,233.75,113.15,2.95.9,4.97,3.67,4.97,6.79v667.54c0,3.92-3.14,7.1-7,7.11h-.03ZM319.05,1007.84v.51c.49,49.99,29.46,98.11,86.15,143.03,53.38,42.29,130.71,80.16,224.06,109.8v-652.69c-97.23-30.45-177.84-69.83-233.36-114.06-36.69-29.08-62.37-59.91-76.85-91.9v605.31Z"/>
      <path class="cls-11" d="M1604.97,402.94v319.76c243,58.47,405.09,163.52,405.17,283.39v-319.66c0-119.92-162.04-225-405.17-283.49Z"/>
      <path class="cls-2" d="M2010.15,1013.18c-3.86,0-6.99-3.17-7-7.09,0-55.38-37.46-110.29-108.4-158.83-70.03-47.94-170.77-88.64-291.38-117.65-3.15-.76-5.37-3.62-5.37-6.91v-319.76c0-3.92,3.13-7.09,6.99-7.08.54,0,1.08.06,1.61.19,122.27,29.41,224.63,70.82,296.03,119.72,74.91,51.25,114.52,110.33,114.52,170.67v319.66c0,3.92-3.13,7.09-6.99,7.09h0,0ZM1611.96,717.09c119.85,29.33,220.25,70.22,290.59,118.39,49.09,33.61,83.06,70.52,100.58,108.94v-258c0-55.4-37.46-110.34-108.35-158.9-68.4-46.82-166-86.7-282.82-115.58v305.14Z"/>
      <path class="cls-2" d="M2010.15,339.58v668.84h0c-1.01,106.86-127.81,201.83-324.18,262.36v-667.54c197.12-60.8,324.18-156.28,324.18-263.67Z"/>
      <path class="cls-2" d="M1685.93,1277.89c-1.5,0-2.96-.49-4.15-1.41-1.78-1.34-2.84-3.45-2.83-5.7v-667.54c-.01-3.11,1.97-5.86,4.89-6.79,97.71-30.15,178.62-69.28,233.75-113.15,56.72-45.15,85.5-93.5,85.5-143.72.01-3.92,3.15-7.08,7.01-7.07,3.84.01,6.95,3.17,6.96,7.07v668.84c.02.23.02.45,0,.68-1.45,106.59-121.36,204.42-329.13,268.48-.64.21-1.31.31-1.99.31ZM1692.93,608.49v652.69c93.35-29.64,170.67-67.51,224.04-109.8,56.69-44.91,85.68-93.04,86.15-143.03V402.53c-14.49,31.94-40.18,62.69-76.87,91.9-55.5,44.24-136.1,83.61-233.33,114.06h0Z"/>
      <path class="cls-9" d="M913.66,89.7v238.59c82.14-9.66,164.76-14.45,247.45-14.35,13.35,0,26.63.12,39.83.36l3.44-238.52c-14.33-.28-28.76-.42-43.27-.43-82.69-.09-165.31,4.7-247.45,14.35Z"/>
      <path class="cls-2" d="M913.66,335.38c-3.86,0-6.99-3.19-6.99-7.11V89.7c0-3.6,2.65-6.63,6.17-7.04,82.41-9.68,165.3-14.49,248.26-14.4,14.38,0,28.99.13,43.4.43,3.85.06,6.92,3.28,6.86,7.19h0s-3.44,238.53-3.44,238.53c-.03,1.87-.79,3.66-2.12,4.96-1.34,1.3-3.14,2.02-5,2-13.4-.25-26.76-.36-39.7-.36-82.41-.09-164.76,4.68-246.63,14.3-.27.04-.54.07-.81.08ZM920.65,96.01v224.31c79.84-9.06,160.12-13.57,240.46-13.49,10.76,0,21.82,0,32.95.25l3.26-224.34c-12.07-.2-24.2-.3-36.19-.3-80.35-.08-160.63,4.45-240.47,13.57h0Z"/>
      <g class="cls-12">
        <g>
          <path class="cls-2" d="M938.24,245.35c-2.51,17.8,9.67,34.31,27.21,36.86,3.04.44,6.13.44,9.18-.01l30.57,76.89c-14.4,10.53-17.66,30.91-7.29,45.53s30.45,17.93,44.85,7.4c4.95-3.62,8.78-8.59,11.05-14.34l82.88,11.85c1.78,17.92,17.53,30.99,35.19,29.19s30.53-17.79,28.76-35.72c-.67-6.77-3.41-13.16-7.84-18.27l48.73-63.2c1.23.34,2.47.6,3.73.78,17.58,2.52,33.85-9.91,36.33-27.76,2.48-17.85-9.77-34.36-27.35-36.87-1.26-.17-2.53-.27-3.79-.28l-30.44-76.57c14.02-11.04,16.57-31.53,5.69-45.76-10.88-14.23-31.06-16.82-45.08-5.77-4.47,3.52-7.95,8.19-10.08,13.51l-79.69-11.37c-1.79-17.92-17.55-30.98-35.2-29.17-17.66,1.81-30.52,17.81-28.74,35.73.61,6.16,2.94,12.01,6.71,16.88l-50.31,65.31c-2.76-1.26-5.68-2.12-8.68-2.56-17.58-2.54-33.86,9.86-36.36,27.7,0,.01,0,.02,0,.04ZM988.89,276.35c14.39-10.48,17.69-30.81,7.36-45.42-.27-.39-.56-.77-.85-1.15l50.26-65.3c16.17,7.38,35.17.06,42.44-16.36.18-.41.36-.83.52-1.25l79.8,11.39c1.74,17.87,17.42,30.93,35.02,29.17.84-.08,1.68-.2,2.52-.35l29.31,73.74c-15.83,8.12-22.18,27.72-14.19,43.8,1.72,3.45,4.03,6.57,6.83,9.2l-47.72,61.94c-16.39-6.4-34.8,1.76-41.32,18.32l-82.86-11.87c-1.75-17.87-17.44-30.92-35.04-29.14-.49.05-.97.11-1.45.18l-30.63-76.9Z"/>
          <path class="cls-2" d="M1080.98,255.38c7.84-16.17,27.12-22.82,43.04-14.86s22.48,27.52,14.64,43.69c-7.84,16.17-27.12,22.82-43.04,14.86-15.93-7.96-22.48-27.52-14.64-43.69Z"/>
        </g>
      </g>
      <path class="cls-11" d="M976.12,627.15c11.17-.98,22.43-1.87,33.78-2.66v-192.54c0-7.64-6.11-13.83-13.64-13.83-.34,0-.68.01-1.02.04l-6.51.53c-7.08.56-12.55,6.56-12.56,13.77l-.05,194.68Z"/>
      <path class="cls-2" d="M976.12,634.24c-3.86,0-6.99-3.16-7-7.08v-194.7c.06-10.89,8.31-19.94,19.01-20.85l6.51-.53c11.35-.88,21.26,7.76,22.12,19.28.04.53.06,1.05.06,1.58v192.54c0,3.73-2.84,6.83-6.51,7.08-11.4.81-22.8,1.65-33.68,2.64l-.5.03ZM996.36,425.23h-.52l-6.51.53c-3.45.28-6.11,3.19-6.12,6.7v186.96c6.51-.55,13.12-1.07,19.8-1.55v-185.91c-.02-3.71-2.97-6.71-6.63-6.73h-.02Z"/>
      <path class="cls-11" d="M1062.55,502.51l-6.51.31c-7.28.32-13.02,6.39-13.03,13.79v105.8c11.18-.62,22.44-1.14,33.78-1.57v-104.52c0-7.63-6.1-13.82-13.62-13.82-.21,0-.41,0-.62.01Z"/>
      <path class="cls-2" d="M1043,629.51c-3.85,0-6.98-3.15-6.99-7.06v-105.86c-.01-11.17,8.63-20.37,19.62-20.88l6.51-.31h0c11.37-.52,21,8.41,21.51,19.95.01.32.02.63.02.95v104.54c0,3.81-2.96,6.93-6.71,7.09-11.14.43-22.46.96-33.68,1.57l-.29.02ZM1062.86,509.6l-6.51.3c-3.53.17-6.31,3.12-6.32,6.71v98.34c6.61-.35,13.21-.66,19.8-.93v-97.71c0-3.72-2.98-6.72-6.64-6.72-.1,0-.2,0-.3,0h-.03Z"/>
      <path class="cls-11" d="M927.96,470.3l-2.13.23c-6.89.78-12.11,6.7-12.12,13.74v149.26c9.71-1.16,19.48-2.26,29.31-3.31v-146.15c.02-7.63-6.07-13.83-13.59-13.85-.49,0-.99.03-1.48.08Z"/>
      <path class="cls-2" d="M913.66,640.66c-3.85,0-6.98-3.15-6.99-7.06v-149.26c-.02-10.67,7.89-19.65,18.34-20.81l2.13-.25c11.32-1.22,21.48,7.1,22.68,18.6.08.73.12,1.47.12,2.2v146.22c0,3.64-2.72,6.69-6.29,7.06-9.9,1.04-19.74,2.13-29.31,3.31-.23.01-.46.01-.68,0ZM929.41,477.35h-.73l-2.12.23c-3.33.38-5.86,3.21-5.9,6.61v141.29c5.06-.58,10.19-1.14,15.36-1.65v-139.75c0-3.7-2.95-6.71-6.6-6.73h-.02Z"/>
      <path class="cls-11" d="M1129.9,418.58c-2.2,0-4.38,0-6.51.1-7.42.13-13.38,6.27-13.39,13.8v187.34c11.2-.26,22.46-.45,33.78-.55v-186.9c0-7.63-6.11-13.81-13.63-13.81-.08,0-.16,0-.25,0Z"/>
      <path class="cls-2" d="M1109.89,626.92c-3.85,0-6.98-3.15-6.99-7.06v-187.38c.05-11.39,9.04-20.66,20.26-20.9l6.6-.12h0c11.39-.16,20.76,9.1,20.91,20.66,0,.08,0,.17,0,.25v186.9c0,3.9-3.1,7.07-6.94,7.11-11.04.08-22.38.26-33.68.53h-.16ZM1130.05,425.67h-.15l-6.51.1c-3.61.07-6.5,3.05-6.51,6.71v180.09c6.63-.13,13.24-.23,19.79-.31v-179.87c0-3.71-2.96-6.71-6.61-6.71h-.02.02Z"/>
      <path class="cls-11" d="M1176.77,394.64v224.64c10.41.07,20.78.17,31.11.3l4.17-224.72c.13-7.62-7.57-13.92-17.25-14.02h-.34c-9.74-.1-17.69,6.13-17.69,13.8Z"/>
      <path class="cls-2" d="M1207.88,626.67h-.1c-9.3-.12-19.45-.21-31.04-.28-3.85-.03-6.95-3.2-6.95-7.11v-224.64c.07-5.12,2.15-10.01,5.8-13.56,5.11-4.9,11.92-7.54,18.94-7.34h.39c6.95-.05,13.64,2.69,18.61,7.62,3.56,3.61,5.54,8.52,5.5,13.62l-4.17,224.72c-.07,3.86-3.18,6.96-6.99,6.96ZM1183.78,612.24c6.12,0,11.82.1,17.25.17l4.04-217.68c-.08-1.32-.66-2.56-1.63-3.46-2.39-2.21-5.53-3.39-8.76-3.31h-.33c-3.3-.13-6.53,1.05-8.97,3.31-.97.89-1.56,2.14-1.63,3.47l.03,217.5Z"/>
      <path class="cls-7" d="M1265.42,618.03c103.46,4.53,201.16,15.7,289.66,32.28V110.71c-88.5-16.94-186.19-28.35-289.66-33.06v540.38Z"/>
      <path class="cls-2" d="M1555.08,657.4c-.43,0-.85-.04-1.27-.12-90.26-16.91-187.38-27.74-288.7-32.17-3.74-.17-6.68-3.29-6.68-7.09V77.73c0-3.92,3.12-7.09,6.98-7.1.11,0,.21,0,.32,0,101.96,4.56,199.76,15.7,290.65,33.06,3.29.65,5.67,3.57,5.68,6.98v539.64c0,3.91-3.1,7.08-6.95,7.09h-.03,0ZM1272.4,611.25c96.48,4.5,189.14,14.76,275.68,30.55V116.54c-86.46-16.25-179.14-26.83-275.68-31.41v526.11Z"/>
      <path class="cls-6" d="M1403.11,605.86h-.1c-1.92-.06-3.43-1.69-3.39-3.64l3.78-150.28-19.45,148.96c-.25,1.94-2,3.31-3.91,3.06-1.91-.25-3.26-2.03-3.01-3.97h0l18.32-151.18-33.11,142.17c-.51,1.89-2.43,3.01-4.3,2.5-1.79-.49-2.89-2.31-2.51-4.15l32.99-148.23-46.06,131.7c-.88,1.74-2.98,2.43-4.69,1.53-1.39-.73-2.14-2.31-1.82-3.87l47.46-140.69-58.21,117.37c-.95,1.71-3.09,2.31-4.77,1.35-1.55-.89-2.2-2.82-1.5-4.49l61.36-127.95-69.36,99.02c-1.11,1.6-3.28,1.99-4.86.87-1.58-1.12-1.96-3.33-.86-4.93l73.94-109.25-79,76.04c-1.4,1.35-3.62,1.29-4.95-.14-1.3-1.4-1.28-3.59.06-4.96l84.41-84.75-86.48,48.49c-1.72.89-3.83.2-4.71-1.55-.82-1.63-.28-3.63,1.24-4.62l91.3-54.55-90.83,16.73c-1.91.27-3.69-1.08-3.96-3.02-.25-1.79.86-3.48,2.59-3.94l93.45-20.56-90.92-17.75c-1.88-.45-3.05-2.36-2.61-4.27.4-1.75,2.04-2.92,3.8-2.72l90.39,14.27-86.01-52.22c-1.63-1.05-2.12-3.24-1.09-4.9.98-1.57,2.97-2.11,4.59-1.25l82.88,46.85-76.4-83.48c-1.35-1.42-1.31-3.68.09-5.05,1.4-1.37,3.63-1.33,4.98.09l72.31,75.3-63.51-109.29c-.99-1.68-.46-3.85,1.19-4.86,1.65-1.01,3.79-.47,4.79,1.21l59.85,98.89-48.58-128.76c-.6-1.87.4-3.87,2.24-4.48,1.7-.56,3.54.26,4.28,1.91l46.32,117.63-32.86-141.97c-.31-1.94.98-3.76,2.89-4.08,1.71-.28,3.37.75,3.9,2.43l32.25,131.85-17.34-149.69c-.13-1.96,1.33-3.65,3.26-3.78,1.77-.12,3.35,1.13,3.68,2.91l17.91,142-2.13-152.5c.09-1.96,1.73-3.48,3.66-3.38,1.76.08,3.18,1.47,3.33,3.25l3.47,148.41,12.46-151.11c.26-1.94,2.02-3.31,3.94-3.04,1.76.24,3.06,1.79,3.03,3.59l-11.06,151.24,26.38-146.03c.34-1.93,2.16-3.21,4.06-2.86s3.16,2.19,2.82,4.12h0l-25.68,150.27,39.66-137.34c.59-1.87,2.56-2.9,4.4-2.3,1.76.57,2.78,2.44,2.32,4.26l-40.27,145.08,52.23-125.09c.75-1.83,2.81-2.69,4.61-1.93,1.8.76,2.65,2.85,1.91,4.68h0l-54.51,135.01,63.79-108.86c1.03-1.66,3.19-2.17,4.83-1.12,1.57,1,2.1,3.06,1.22,4.71l-67.9,119.42,74.39-88.13c1.25-1.5,3.45-1.69,4.93-.43s1.67,3.51.42,5.01l-79.57,97.8,83.06-62.82c1.59-1.11,3.77-.7,4.87.92,1.01,1.5.75,3.54-.62,4.72l-88.38,70.27,89.12-33.06c1.8-.7,3.81.22,4.5,2.04s-.21,3.87-2.01,4.57h0l-93.01,37.87,91.48.31c1.93-.03,3.52,1.54,3.55,3.5.03,1.96-1.52,3.58-3.45,3.6l-92.47,3.12,89.12,35.19c1.72.9,2.39,3.05,1.5,4.79-.74,1.45-2.36,2.2-3.93,1.82l-87.11-31,81.75,68.39c1.46,1.29,1.61,3.54.33,5.01-1.2,1.39-3.25,1.62-4.71.52l-77.93-61.59,70.24,97.14c1.07,1.64.62,3.84-.99,4.92-1.48.99-3.45.71-4.6-.66l-66.27-87.71,56.23,119.77c.75,1.81-.09,3.89-1.87,4.65-1.65.7-3.55.04-4.42-1.55l-53.17-108.86,40.81,136.13c.49,1.9-.63,3.84-2.5,4.34-1.75.46-3.55-.5-4.17-2.22l-39.31-125.27,25.11,146.51c.28,1.94-1.04,3.75-2.96,4.03-1.83.27-3.55-.94-3.93-2.77l-25.1-137.42,9.67,151.67c.11,1.96-1.36,3.64-3.29,3.76-1.91.11-3.55-1.34-3.7-3.28l-10.7-145.65-5.24,152.3c-.07,1.94-1.66,3.46-3.57,3.42ZM1408.57,381.93h.65c.3-.13.62-.21.94-.25.36-.35.78-.62,1.25-.79.33-.62.83-1.13,1.43-1.47.2-.88.73-1.65,1.47-2.15,0-1.06.48-2.07,1.3-2.73-.19-1.15.19-2.32,1.01-3.14h0c-.31-.94-.21-1.98.28-2.84.13-.24.29-.46.47-.66-.3-.66-.4-1.4-.28-2.12.09-.56.32-1.1.65-1.55-.21-.36-.35-.75-.44-1.16-.16-.86,0-1.75.44-2.5l-.23-.35c.07-2.12-.23-4.25-.88-6.27-.48-1.66-1.21-3.23-2.17-4.66-.5-.33-.91-.79-1.19-1.32-.37-.16-.71-.39-1.01-.68-.27-.03-.53-.1-.78-.2-.27.03-.54.03-.81,0-.34.23-.71.4-1.11.5-.35.48-.81.86-1.35,1.11-.27.76-.8,1.4-1.48,1.82-.1.98-.61,1.87-1.4,2.45-.95,1.89-1.57,3.93-1.84,6.03-.08.12-.18.23-.28.33.3.82.3,1.71,0,2.53-.14.39-.35.75-.62,1.07.28.51.42,1.07.42,1.65,0,.72-.2,1.43-.6,2.03.14.23.26.47.36.73.35.93.29,1.97-.16,2.86h0c.7.95.89,2.19.5,3.31.4,1.84,1.07,3.61,1.99,5.26.55,1.06,1.34,1.98,2.31,2.66.31.1.6.23.88.4l.26.1Z"/>
      <path class="cls-2" d="M1307.17,529.82c-.83,0-1.65-.15-2.43-.45-3.61-1.35-5.46-5.42-4.13-9.09,0,0,0-.02,0-.02l37.95-104.14c1.34-3.67,5.35-5.55,8.97-4.2,1.04.39,1.97,1.02,2.72,1.85l35.83,39.43,6.6-114.06c.22-3.91,3.52-6.9,7.37-6.68,2.23.13,4.27,1.33,5.48,3.24l34.4,54.14,19.79-31.09,39.09-187.15c.8-3.83,4.51-6.28,8.29-5.47,3.78.81,6.19,4.58,5.39,8.41h0l-39.33,188.45c-.18.85-.51,1.66-.98,2.38l-26.33,41.43c-1.27,2.05-3.49,3.3-5.88,3.31h0c-2.38,0-4.6-1.26-5.86-3.31l-28.68-45.11-6.32,108.99c-.22,3.91-3.52,6.9-7.37,6.68-1.81-.11-3.51-.92-4.74-2.28l-39.3-43.18-33.99,93.22c-.99,2.81-3.59,4.69-6.53,4.71Z"/>
      <ellipse class="cls-11" cx="1505.7" cy="173.1" rx="17.28" ry="17.54"/>
      <path class="cls-2" d="M1505.7,197.73c-13.41,0-24.28-11.04-24.28-24.65,0-13.61,10.87-24.65,24.28-24.65s24.28,11.04,24.28,24.65v.02c-.02,13.6-10.88,24.62-24.28,24.63ZM1505.7,162.65c-5.68,0-10.29,4.68-10.29,10.45s4.61,10.45,10.29,10.45c5.68,0,10.29-4.68,10.29-10.45h0c0-5.77-4.61-10.45-10.29-10.45Z"/>
      <ellipse class="cls-9" cx="1308" cy="534.36" rx="17.28" ry="17.54"/>
      <path class="cls-2" d="M1308,559.01c-13.41,0-24.29-11.02-24.3-24.63,0-13.61,10.86-24.66,24.27-24.66,13.41,0,24.29,11.02,24.3,24.63v.02c0,13.6-10.87,24.63-24.27,24.65ZM1308,523.93c-5.68,0-10.29,4.68-10.29,10.45s4.61,10.45,10.29,10.45c5.68,0,10.29-4.68,10.29-10.45v-.02c0-5.76-4.61-10.43-10.29-10.43Z"/>
      <ellipse class="cls-2" cx="1345.04" cy="418.56" rx="17.28" ry="17.54"/>
      <ellipse class="cls-2" cx="1392.97" cy="472.64" rx="17.28" ry="17.54"/>
      <ellipse class="cls-2" cx="1399.4" cy="343.98" rx="17.28" ry="17.54"/>
      <ellipse class="cls-2" cx="1439.54" cy="409.85" rx="17.28" ry="17.54"/>
      <ellipse class="cls-2" cx="1468.71" cy="356.04" rx="17.28" ry="17.54"/>
      <path class="cls-1" d="M1898.96,854.24c-8.42-5.18-12.27-15.54-9.3-25.08l-37.46-22.99c-6.88,7.1-17.67,8.47-26.06,3.31-10.02-6.13-13.3-19.31-7.36-29.54h0c1-1.7,2.24-3.25,3.66-4.6l-28.01-49.31c-.33.1-.64.21-.98.3-11.34,2.88-22.84-4.13-25.67-15.64-2.83-11.52,4.07-23.18,15.41-26.06,8.95-2.27,18.32,1.61,23.16,9.58,5.28,8.69,3.8,19.96-3.53,26.95l28.01,49.31c9.24-2.81,19.18,1.07,24.18,9.44,3.22,5.35,4,11.86,2.13,17.84l37.46,22.98c6.88-7.1,17.67-8.47,26.06-3.31,10.04,6.09,13.31,19.29,7.3,29.48-6,10.19-19.01,13.51-29.05,7.41l.03-.07Z"/>
      <path class="cls-8" d="M384.1,978.61c-15.16-12.82-37.68-10.79-50.37,4.55l-111.13,134.81,54.85,46.63,111.13-134.79c12.68-15.4,10.67-38.31-4.48-51.2Z"/>
      <path class="cls-2" d="M277.44,1171.66c-3.87-.05-6.96-3.28-6.91-7.2.02-1.59.57-3.13,1.55-4.37l111.13-134.81c9.93-12.59,7.93-30.98-4.48-41.06-12.03-9.78-29.52-8.2-39.66,3.58l-111.13,134.79c-2.62,2.89-7.05,3.07-9.9.41-2.65-2.48-3.01-6.6-.84-9.52l111.13-134.81c15.5-18.09,42.51-20,60.33-4.27,17.35,15.31,19.67,41.81,5.25,59.98l-111.13,134.81c-1.34,1.58-3.3,2.48-5.36,2.46Z"/>
      <path class="cls-7" d="M344.43,1015c11.73-11.22,15.5-28.7,11.06-44.3-8.5,1.34-16.24,5.77-21.76,12.46l-31.14,37.81c13.76,7.33,30.6,4.93,41.84-5.97Z"/>
      <path class="cls-2" d="M319.51,1032.36c-7,0-13.9-1.71-20.13-4.96-3.44-1.79-4.8-6.08-3.04-9.57.24-.47.52-.91.85-1.31l31.15-37.81c6.64-7.98,15.89-13.27,26.06-14.88,3.46-.58,6.81,1.54,7.82,4.96,5.29,18.63.21,38.81-13.03,51.44-8,7.75-18.63,12.08-29.69,12.12ZM314.44,1017.69c9.14,1.6,18.48-1.29,25.19-7.79h0c7.92-7.9,11.78-19.08,10.46-30.27-4.27,1.77-8.05,4.58-11.01,8.17l-24.64,29.89Z"/>
      <path class="cls-10" d="M209.76,1150.02s-45.88,57.71,15.29,91.6c0,0-13.76-9.09,0-45.81,13.76-36.72,36.71-66.12,36.71-66.12l-52,20.33Z"/>
      <path class="cls-8" d="M2008.88,983.16c-11.77-16.15-34.2-19.56-50.11-7.61-15.91,11.94-19.27,34.72-7.5,50.87.85,1.17,1.78,2.29,2.76,3.35l111.13,134.79,54.85-46.58-111.13-134.81Z"/>
      <path class="cls-2" d="M2065.16,1171.66c-2.07,0-4.03-.93-5.36-2.55l-111.13-134.81c-15.16-18.38-12.76-45.75,5.34-61.13,18.11-15.38,45.07-12.96,60.22,5.42l111.13,134.81c2.48,3,2.09,7.48-.87,9.99-2.96,2.52-7.37,2.12-9.84-.88l-111.13-134.79c-9.93-12.59-28.04-14.63-40.45-4.55-12.41,10.08-14.41,28.47-4.48,41.06.26.33.52.65.79.96l111.13,134.81c2.43,3.06,1.96,7.53-1.05,10-1.22,1-2.74,1.56-4.31,1.58v.08Z"/>
      <path class="cls-7" d="M1998.18,1015c-11.73-11.22-15.52-28.7-11.07-44.3,8.51,1.33,16.25,5.76,21.77,12.46l31.17,37.81c-13.77,7.34-30.62,4.94-41.87-5.97Z"/>
      <path class="cls-2" d="M2023.09,1032.36c-11.07-.02-21.71-4.36-29.72-12.12h0c-13.19-12.63-18.29-32.81-13.03-51.44,1-3.42,4.35-5.54,7.82-4.96,10.17,1.6,19.43,6.89,26.06,14.88l31.17,37.81c2.48,3.01,2.08,7.5-.89,10.01-.4.34-.83.63-1.29.87-6.22,3.25-13.12,4.95-20.11,4.96ZM2002.97,1009.91c6.71,6.49,16.06,9.38,25.19,7.79l-24.64-29.97c-2.96-3.59-6.74-6.39-11.01-8.17-1.32,11.19,2.54,22.37,10.46,30.27v.08Z"/>
      <path class="cls-10" d="M2127.89,1150.02s45.88,57.71-15.29,91.6c0,0,13.76-9.09,0-45.81-13.76-36.72-36.71-66.12-36.71-66.12l52,20.33Z"/>
      <g>
        <path class="cls-5" d="M937.23,920.67v29.34c-6.81,1.38-11.97,7.57-11.97,14.97,0,8.42,6.66,15.27,14.84,15.27s14.84-6.85,14.84-15.27c0-7.41-5.15-13.59-11.97-14.97v-29.34c6.81-1.38,11.97-7.57,11.97-14.97,0-8.42-6.66-15.27-14.84-15.27s-14.84,6.85-14.84,15.27c0,7.41,5.15,13.59,11.97,14.97Z"/>
        <path class="cls-1" d="M1364.67,854.7v29.34c-6.81,1.38-11.97,7.57-11.97,14.97,0,8.42,6.66,15.27,14.84,15.27s14.84-6.85,14.84-15.27c0-7.41-5.15-13.59-11.97-14.97v-29.34c6.81-1.38,11.97-7.57,11.97-14.97,0-8.42-6.66-15.27-14.84-15.27s-14.84,6.85-14.84,15.27c0,7.41,5.15,13.59,11.97,14.97Z"/>
        <path class="cls-1" d="M1399.47,1341.37l-444.88-22.25c-14.41,0-26.1-10.26-26.1-22.91l-19.11-495.8c0-12.65,30.8-29.97,45.21-29.97h452.46c14.41,0,26.1,10.26,26.1,22.91l-1.44,516.17c0,12.65-17.83,31.84-32.24,31.84Z"/>
        <g>
          <rect class="cls-7" x="910.48" y="788.07" width="504.66" height="548.68" rx="17.75" ry="17.75"/>
          <path class="cls-7" d="M1389.05,1341.92h-452.47c-17.63,0-31.98-12.59-31.98-28.07v-502.86c0-15.48,14.35-28.07,31.98-28.07h452.47c17.63,0,31.98,12.59,31.98,28.07v502.86c0,15.48-14.35,28.07-31.98,28.07ZM936.58,793.23c-11.15,0-20.22,7.96-20.22,17.75v502.86c0,9.79,9.07,17.75,20.22,17.75h452.47c11.15,0,20.22-7.96,20.22-17.75v-502.86c0-9.79-9.07-17.75-20.22-17.75h-452.47Z"/>
        </g>
        <g>
          <g>
            <rect class="cls-11" x="972.68" y="849.38" width="380.26" height="426.06"/>
            <path class="cls-2" d="M1352.95,1282.82h-380.26c-3.25,0-5.88-3.3-5.88-7.38v-426.06c0-4.08,2.63-7.38,5.88-7.38h380.26c3.25,0,5.88,3.3,5.88,7.38v426.06c0,4.08-2.63,7.38-5.88,7.38ZM978.56,1268.06h368.5v-411.3h-368.5v411.3Z"/>
          </g>
          <g>
            <g>
              <path class="cls-11" d="M1071.23,1270.54h200.06c-19.98-32.55-57.29-54.46-100.03-54.46s-80.05,21.9-100.03,54.46Z"/>
              <path class="cls-2" d="M1271.29,1277.92h-200.06c-2.24,0-4.29-1.6-5.28-4.12-.99-2.52-.75-5.53.62-7.76,21.7-35.36,61.82-57.33,104.69-57.33s82.99,21.97,104.69,57.33c1.37,2.23,1.61,5.24.62,7.76-.99,2.52-3.04,4.12-5.28,4.12ZM1084.42,1263.16h173.68c-20.63-24.78-52.69-39.7-86.84-39.7s-66.21,14.92-86.84,39.7Z"/>
            </g>
            <g id="head">
              <g>
                <path class="cls-3" d="M1171.47,1256.76h0c-12.73,0-23.15-13.07-23.15-29.04v-47.33c0-2.53,1.65-4.61,3.67-4.61h38.95c2.02,0,3.67,2.07,3.67,4.61v47.33c0,15.97-10.42,29.04-23.15,29.04Z"/>
                <path class="cls-2" d="M1171.47,1264.13c-16.01,0-29.03-16.34-29.03-36.42v-47.33c0-6.61,4.29-11.99,9.55-11.99h38.95c5.27,0,9.55,5.38,9.55,11.99v47.33c0,20.08-13.02,36.42-29.03,36.42ZM1154.21,1183.16v44.56c0,11.95,7.74,21.66,17.26,21.66s17.26-9.72,17.26-21.66v-44.56h-34.53Z"/>
              </g>
              <g>
                <path class="cls-3" d="M1096.77,1038.71c0,11.66-7.53,21.11-16.82,21.11s-16.82-9.45-16.82-21.11,7.53-21.11,16.82-21.11,16.82,9.45,16.82,21.11Z"/>
                <path class="cls-2" d="M1079.95,1067.2c-12.52,0-22.7-12.78-22.7-28.49s10.18-28.49,22.7-28.49,22.7,12.78,22.7,28.49-10.18,28.49-22.7,28.49ZM1079.95,1024.99c-6.03,0-10.94,6.16-10.94,13.73s4.91,13.73,10.94,13.73,10.94-6.16,10.94-13.73-4.91-13.73-10.94-13.73Z"/>
              </g>
              <g>
                <path class="cls-3" d="M1279.39,1038.71c0,11.66-7.53,21.11-16.82,21.11s-16.82-9.45-16.82-21.11,7.53-21.11,16.82-21.11,16.82,9.45,16.82,21.11Z"/>
                <path class="cls-2" d="M1262.57,1067.2c-12.52,0-22.7-12.78-22.7-28.49s10.18-28.49,22.7-28.49,22.7,12.78,22.7,28.49-10.18,28.49-22.7,28.49ZM1262.57,1024.99c-6.03,0-10.94,6.16-10.94,13.73s4.91,13.73,10.94,13.73,10.94-6.16,10.94-13.73-4.91-13.73-10.94-13.73Z"/>
              </g>
              <g>
                <path class="cls-3" d="M1170.63,1193.24h0c-45.13,0-82.05-51.56-82.05-114.58v-62.94c0-49.13,28.79-89.32,63.97-89.32h36.17c35.18,0,63.97,40.2,63.97,89.32v62.94c0,63.02-36.92,114.58-82.05,114.58Z"/>
                <path class="cls-2" d="M1170.63,1200.62c-48.49,0-87.93-54.71-87.93-121.96v-62.94c0-53.32,31.33-96.7,69.85-96.7h36.17c38.51,0,69.85,43.38,69.85,96.7v62.94c0,67.25-39.45,121.96-87.93,121.96ZM1152.55,933.78c-32.03,0-58.09,36.76-58.09,81.95v62.94c0,59.11,34.17,107.2,76.17,107.2s76.17-48.09,76.17-107.2v-62.94c0-45.19-26.06-81.95-58.09-81.95h-36.17Z"/>
              </g>
            </g>
            <g id="face">
              <path class="cls-2" d="M1146.54,1029.36l-29.78,2.1c-2.97.21-5.53-2.67-5.7-6.39h0c-.17-3.73,2.13-6.94,5.09-7.15l29.78-2.1c2.97-.21,5.53,2.67,5.7,6.39h0c.17,3.73-2.13,6.94-5.09,7.15Z"/>
              <path class="cls-2" d="M1224.46,1031.61l-29.77-2.39c-2.97-.24-5.24-3.48-5.05-7.2h0c.19-3.72,2.77-6.57,5.74-6.34l29.77,2.39c2.97.24,5.24,3.48,5.05,7.2h0c-.19,3.72-2.77,6.57-5.74,6.34Z"/>
              <path class="cls-2" d="M1200.2,1128.03c-2.16-.26-4.07,1.7-4.31,4.4-.07.81-2.01,19.81-25.25,19.81s-25.18-19-25.25-19.76c-.2-2.72-2.12-4.72-4.28-4.47-2.16.25-3.76,2.65-3.56,5.37.02.29,2.46,28.74,33.09,28.74s33.07-28.45,33.09-28.74c.2-2.7-1.38-5.07-3.53-5.34Z"/>
              <path class="cls-2" d="M1175.53,1104.63h-8.71c-4.35,0-7.91-4.47-7.91-9.93v-.83c0-5.46,3.56-9.93,7.91-9.93h8.71c4.35,0,7.91,4.47,7.91,9.93v.83c0,5.46-3.56,9.93-7.91,9.93Z"/>
              <path class="cls-2" d="M1203.06,1088.54v-.75c0-3.11,2.03-5.65,4.51-5.65h17.1c2.48,0,4.51,2.54,4.51,5.65v.75c0,3.11-2.03,5.65-4.51,5.65h-17.1c-2.48,0-4.51-2.54-4.51-5.65Z"/>
              <path class="cls-2" d="M1115.43,1088.54v-.75c0-3.11,2.03-5.65,4.51-5.65h17.11c2.48,0,4.51,2.54,4.51,5.65v.75c0,3.11-2.03,5.65-4.51,5.65h-17.11c-2.48,0-4.51-2.54-4.51-5.65Z"/>
              <ellipse class="cls-2" cx="1132.73" cy="1056.36" rx="10.94" ry="4.49"/>
              <ellipse class="cls-2" cx="1211.31" cy="1056.36" rx="10.94" ry="4.49"/>
            </g>
            <g>
              <g>
                <path class="cls-1" d="M1244.17,910.74c-4.28-2.32-9-3.6-14.14-3.6-3.48,0-6.87.52-10.14,1.52-.06-.2-.11-.41-.17-.61-9.07-30.59-50.65-39.4-92.89-19.69-25.94,12.11-46.09,32.17-55.68,52.93-9.27,14.35-7.85,44,.68,65.71v13.23c1.63-1.13,3.43-1.92,5.33-2.32,3.21,5.27,6.97,9.52,11.19,12.14v-9.6c.07.05.15.1.22.15v-4.87c0-8.93.96-17.56,2.72-25.71,12.08-20.76,35.68-34.87,62.85-34.87,15.9,0,31.37,3.85,43.36,11.88-1.5,23.12,8.57,49.27,25.29,62.73,17.9,14.42,37.24,9.33,45.67-10.8,3.51,1.65,6.47,4.73,8.41,8.68v-63.23c0-26.08-14.05-48.07-32.72-53.66Z"/>
                <path class="cls-2" d="M1243.48,1045.38c-7.92,0-16.14-3.2-23.85-9.41-17.01-13.7-28.18-39.62-28.15-64.45-10.2-5.82-23.29-8.99-37.33-8.99-23.96,0-45.85,11.75-57.46,30.76-1.48,7.29-2.23,14.83-2.23,22.44v4.87c0,.68-.07,1.35-.22,1.99v7.46c0,2.55-1.05,4.92-2.78,6.27-1.73,1.35-3.89,1.48-5.71.34-3.81-2.36-7.36-5.81-10.6-10.28-.16.1-.31.2-.47.31-1.82,1.26-4.04,1.22-5.83-.11-1.79-1.33-2.89-3.74-2.89-6.35v-11.55c-8.16-21.96-10.74-53.8.34-71.56,10.67-22.75,32.5-43.53,58.49-55.67,43.63-20.37,85.59-11.89,98.61,18.89,2.2-.38,4.41-.57,6.63-.57,5.61,0,10.99,1.33,16,3.95,21.32,6.71,36.74,32.12,36.74,60.69v63.23c0,3.3-1.74,6.2-4.27,7.1-2.53.9-5.23-.41-6.61-3.22-.45-.91-.98-1.75-1.58-2.5-4.52,7.36-10.68,12.56-17.8,14.92-2.93.97-5.96,1.45-9.02,1.45ZM1154.15,947.77c17.73,0,33.68,4.41,46.13,12.75,2.07,1.38,3.28,4.18,3.09,7.11-1.35,20.77,8.16,44.29,22.61,55.93,7.89,6.35,16.23,8.52,23.52,6.11,5.97-1.98,10.73-6.86,13.77-14.13,1.38-3.29,4.5-4.78,7.27-3.48.15.07.31.15.46.23v-47.87c0-22.04-11.86-41.59-28.21-46.49-.33-.1-.65-.23-.97-.4-3.67-1.99-7.64-3-11.81-3-2.95,0-5.89.44-8.76,1.31-2.94.89-5.95-1.16-6.94-4.76l-.09-.35c-7.81-26.38-46.89-33.41-85.35-15.46-23.7,11.06-43.37,29.64-52.64,49.71-.15.33-.33.65-.52.95-7.19,11.12-6.55,37.59,1.39,57.8.4,1.01.61,2.13.61,3.26v3.57c1.61.19,3.12,1.21,4.12,2.87.28.46.57.92.86,1.36.06-9.06,1.05-18.04,2.92-26.7.19-.87.5-1.69.93-2.42,13.6-23.37,39.5-37.89,67.6-37.89Z"/>
              </g>
              <g>
                <path class="cls-1" d="M1262.57,1059.82c-3.7,0-7.11-1.5-9.89-4.03v22.88c0,32.44-9.79,61.83-25.44,82.73h7.59c23.13,0,42.05-24.78,42.05-55.06v-56.54c-2.96,6.02-8.27,10.02-14.32,10.02Z"/>
                <path class="cls-2" d="M1234.84,1168.77h-7.59c-2.35,0-4.47-1.75-5.4-4.45-.93-2.7-.49-5.84,1.11-7.98,15.38-20.53,23.85-48.12,23.85-77.67v-22.88c0-2.78,1.24-5.32,3.21-6.58,1.97-1.26,4.34-1.03,6.13.61,1.88,1.72,4.1,2.62,6.43,2.62,3.82,0,7.3-2.44,9.31-6.53,1.38-2.81,4.08-4.12,6.61-3.22,2.53.9,4.27,3.8,4.27,7.1v56.54c0,34.43-21.5,62.44-47.93,62.44ZM1258.57,1066.76v11.91c0,27.5-6.54,53.53-18.62,74.87,17.53-3.28,31.06-23.2,31.06-47.2v-41.15c-3.84,1.92-8.28,2.5-12.44,1.58Z"/>
              </g>
              <g>
                <path class="cls-1" d="M1088.58,1056.83c-2.52,1.9-5.48,2.99-8.63,2.99-2.94,0-5.7-.95-8.11-2.61v51.02c0,29.24,17.88,53.17,39.74,53.17h2.43c-15.65-20.9-25.44-50.29-25.44-82.73v-21.83Z"/>
                <path class="cls-2" d="M1114.02,1168.77h-2.43c-25.16,0-45.62-27.16-45.62-60.55v-51.02c0-2.61,1.1-5.03,2.89-6.35,1.79-1.33,4.01-1.37,5.83-.11,3.35,2.32,7.59,2.23,10.88-.25,1.81-1.36,4.08-1.4,5.92-.09,1.84,1.31,2.98,3.76,2.98,6.42v21.83c0,29.56,8.47,57.15,23.84,77.67,1.61,2.14,2.04,5.28,1.11,7.98-.93,2.7-3.05,4.45-5.4,4.45ZM1077.72,1067.06v41.16c0,19.78,9.33,36.68,22.35,43.07-11.28-20.91-17.37-46.08-17.37-72.62v-11.67c-1.64.25-3.32.28-4.98.07Z"/>
              </g>
            </g>
          </g>
        </g>
      </g>
    </g>
  </g>
</svg>