<?xml version="1.0" encoding="UTF-8"?>
<svg id="Layer_2" data-name="Layer 2" xmlns="http://www.w3.org/2000/svg" viewBox="0 0 529.51 550">
  <defs>
    <style>
      .cls-1 {
        fill: #c7ede6;
      }

      .cls-1, .cls-2, .cls-3, .cls-4, .cls-5, .cls-6, .cls-7, .cls-8, .cls-9, .cls-10, .cls-11, .cls-12, .cls-13, .cls-14, .cls-15, .cls-16 {
        stroke-width: 0px;
      }

      .cls-2 {
        fill: #7784ff;
      }

      .cls-3 {
        fill: #68d9c0;
      }

      .cls-4 {
        fill: #f25a3c;
      }

      .cls-5 {
        fill: #736b6b;
      }

      .cls-6 {
        fill: #ee3e54;
      }

      .cls-7 {
        fill: #ffdf40;
      }

      .cls-8 {
        fill: #fbcd59;
      }

      .cls-9 {
        fill: #b4c2db;
      }

      .cls-10 {
        fill: #403939;
      }

      .cls-11 {
        fill: #8db5ff;
      }

      .cls-12 {
        fill: #cfd7e6;
      }

      .cls-13 {
        fill: #fff;
      }

      .cls-14 {
        fill: #f3f5f9;
      }

      .cls-15 {
        fill: #595353;
      }

      .cls-16 {
        fill: #f1bc19;
      }
    </style>
  </defs>
  <g id="Layer_1-2" data-name="Layer 1">
    <g>
      <circle class="cls-16" cx="430.84" cy="52.93" r="6.97"/>
      <circle class="cls-1" cx="264.76" cy="264.76" r="264.76"/>
      <circle class="cls-16" cx="472.64" cy="66.87" r="27.87"/>
      <circle class="cls-6" cx="13.93" cy="97.54" r="13.93"/>
      <circle class="cls-8" cx="315.26" cy="491.29" r="33.55"/>
      <circle class="cls-6" cx="373.97" cy="533.23" r="16.77"/>
      <circle class="cls-13" cx="27.87" cy="250.82" r="6.97"/>
      <circle class="cls-16" cx="515.58" cy="132.38" r="6.97"/>
      <circle class="cls-13" cx="494.68" cy="286.53" r="13.93"/>
      <g>
        <rect class="cls-12" x="233.12" y="349.45" width="72.91" height="49.33"/>
        <path class="cls-9" d="M279.99,399.66c-2.6,0-4.71-2.11-4.71-4.71v-15.62c0-.27-.22-.49-.49-.49h-10.42c-.27,0-.49.22-.49.49v15.62c0,2.6-2.11,4.71-4.71,4.71s-4.72-2.11-4.72-4.71v-15.62c0-5.47,4.45-9.92,9.92-9.92h10.42c5.47,0,9.92,4.45,9.92,9.92v15.62c0,2.6-2.11,4.71-4.72,4.71h0Z"/>
        <rect class="cls-9" x="291.57" y="349.45" width="14.46" height="49.33"/>
        <path class="cls-12" d="M425.81,322.04v-177.07c0-11.51-9.33-20.83-20.83-20.83H134.17c-11.51,0-20.83,9.33-20.83,20.83v177.07l156.23,15.62,156.23-15.62Z"/>
        <path class="cls-9" d="M404.97,124.15h-14.46c11.5,0,20.83,9.33,20.83,20.83v178.51l14.46-1.45v-177.07c0-11.5-9.33-20.83-20.83-20.83h0Z"/>
        <path class="cls-11" d="M134.17,324.12l135.4,13.54,135.4-13.54v-168.73c0-5.75-4.66-10.42-10.42-10.42h-249.98c-5.75,0-10.42,4.66-10.42,10.42v168.73h0Z"/>
        <path class="cls-2" d="M394.56,144.98h-14.42c5.75,0,10.41,4.66,10.41,10.42v170.18l14.42-1.44v-168.73c0-5.75-4.66-10.42-10.41-10.42h0Z"/>
        <path class="cls-14" d="M337.6,394.95h-136.05c-2.7,0-4.88,2.18-4.88,4.88v11.06c0,2.7,2.18,4.88,4.88,4.88h136.05c2.7,0,4.88-2.19,4.88-4.88v-11.06c0-2.7-2.19-4.88-4.88-4.88h0Z"/>
        <path class="cls-12" d="M337.45,394.95h-14.46c2.78,0,5.03,2.25,5.03,5.03v10.77c0,2.78-2.25,5.03-5.03,5.03h14.46c2.78,0,5.03-2.25,5.03-5.03v-10.77c0-2.78-2.25-5.03-5.03-5.03h0Z"/>
        <path class="cls-5" d="M384.15,322.04l-114.57,8.62-114.57-8.62v-156.18l114.57-9.04,114.57,9.04v156.18Z"/>
        <path class="cls-15" d="M369.68,164.72v158.41l14.46-1.09v-156.18l-14.46-1.14Z"/>
        <path class="cls-14" d="M155,165.86v-52.13c0-5.75,4.66-10.42,10.42-10.42h208.31c5.75,0,10.42,4.66,10.42,10.42v10.42l-4.72,10.44,4.72,10.39v20.89h-229.14Z"/>
        <path class="cls-12" d="M373.73,103.31h-14.46c5.75,0,10.42,4.66,10.42,10.42v52.13h-214.69,229.14v-52.13c0-5.75-4.66-10.42-10.42-10.42h0Z"/>
        <path class="cls-3" d="M188.47,124.39c5.62,1.22,9.18,6.77,7.96,12.39-1.23,5.62-6.78,9.18-12.4,7.96-5.62-1.23-9.18-6.78-7.96-12.4,1.22-5.62,6.77-9.18,12.39-7.96h0Z"/>
        <path class="cls-4" d="M235.93,127.91c3.64,4.45,2.98,11.01-1.47,14.66-4.45,3.64-11.01,2.98-14.66-1.47-3.64-4.45-2.98-11.01,1.47-14.66,4.45-3.64,11.01-2.98,14.65,1.47h0Z"/>
        <path class="cls-7" d="M277.58,127.9c3.64,4.45,2.98,11.01-1.47,14.66-4.45,3.64-11.01,2.98-14.65-1.47-3.64-4.45-2.98-11.01,1.47-14.66,4.45-3.64,11.01-2.98,14.65,1.47h0Z"/>
        <path class="cls-14" d="M259.16,285.59c-1.09,0-2.2-.17-3.3-.54-5.46-1.82-8.41-7.72-6.59-13.18l20.83-62.49c1.82-5.46,7.72-8.4,13.18-6.59,5.46,1.82,8.4,7.72,6.59,13.17l-20.83,62.49c-1.46,4.36-5.52,7.13-9.88,7.13h0Z"/>
        <path class="cls-14" d="M217.5,285.59c-2.67,0-5.33-1.02-7.36-3.05l-31.25-31.25c-4.07-4.07-4.07-10.66,0-14.73l31.04-31.04c3.96-3.97,10.42-4.33,14.57-.56,4.43,4.03,4.55,10.89.37,15.08l-20.2,20.2c-2.03,2.03-2.03,5.33,0,7.36l20.2,20.2c4.07,4.07,4.07,10.66,0,14.73-2.03,2.03-4.7,3.05-7.36,3.05h0Z"/>
        <path class="cls-14" d="M321.65,202.33c2.67,0,5.33,1.02,7.36,3.05l31.25,31.25c4.07,4.07,4.07,10.66,0,14.73l-31.04,31.04c-3.96,3.97-10.42,4.33-14.57.56-4.43-4.03-4.55-10.89-.37-15.08l20.2-20.2c2.03-2.03,2.03-5.33,0-7.36l-20.2-20.2c-4.07-4.07-4.07-10.66,0-14.73,2.03-2.03,4.7-3.05,7.36-3.05h0Z"/>
        <path class="cls-15" d="M425.81,322.04H113.34v10.42c0,11.5,9.33,20.83,20.83,20.83h270.8c11.5,0,20.83-9.33,20.83-20.83v-10.42h0Z"/>
        <path class="cls-10" d="M411.34,322.04v10.42c0,11.5-9.33,20.83-20.83,20.83h14.46c11.51,0,20.83-9.33,20.83-20.83v-10.42h-14.46Z"/>
      </g>
    </g>
  </g>
</svg>